<svg xmlns="http://www.w3.org/2000/svg" shape-rendering="geometricPrecision" text-rendering="geometricPrecision" image-rendering="optimizeQuality" fill-rule="evenodd" clip-rule="evenodd" viewBox="0 0 512 512"><path fill="#4D4D4D" fill-rule="nonzero" d="M256 0c70.684 0 134.689 28.664 181.012 74.987C483.336 121.311 512 185.316 512 256c0 70.684-28.664 134.689-74.988 181.013C390.689 483.336 326.684 512 256 512c-70.677 0-134.689-28.664-181.013-74.987C28.664 390.689 0 326.676 0 256c0-70.684 28.664-134.689 74.987-181.013C121.311 28.664 185.316 0 256 0z"/><path fill="#fff" fill-rule="nonzero" d="M256.001 19.597c65.278 0 124.382 26.466 167.162 69.242 42.776 42.78 69.242 101.884 69.242 167.162S465.939 380.384 423.16 423.16c-42.777 42.78-101.881 69.246-167.159 69.246-65.278 0-124.382-26.466-167.162-69.243-42.777-42.779-69.243-101.884-69.243-167.162S46.062 131.619 88.839 88.839c42.78-42.776 101.884-69.242 167.162-69.242z"/><path fill="#FFBE29" d="M256.001 39.594c119.517 0 216.407 96.887 216.407 216.407 0 119.518-96.89 216.407-216.407 216.407-119.521 0-216.407-96.889-216.407-216.407 0-119.52 96.886-216.407 216.407-216.407z"/><path fill="#FFBE29" fill-rule="nonzero" d="M101.498 104.494h309.006c38.283 39.039 61.904 92.509 61.904 151.507 0 50.506-17.306 96.969-46.305 133.788H85.898C56.9 352.97 39.594 306.507 39.594 256.001c0-58.998 23.62-112.468 61.904-151.507z"/><path fill="#EB7400" fill-rule="nonzero" d="M79.241 131.123h63.835v232.041H67.955C49.912 331.57 39.594 294.99 39.594 256.001c0-46.514 14.678-89.597 39.647-124.878z"/><path fill="#00534E" fill-rule="nonzero" d="M68.9 147.209v215.955h-.945C49.912 331.57 39.594 294.99 39.594 256.001c0-39.665 10.678-76.829 29.306-108.792z"/><path fill="#8D153A" fill-rule="nonzero" d="M169.704 131.123H432.76c24.969 35.281 39.648 78.364 39.648 124.878 0 38.989-10.318 75.569-28.362 107.163H169.704V131.123z"/><path fill-rule="nonzero" d="M199.984 326.947c3.383-2.604 6.471-9.051 6.48-9.069a.499.499 0 01.945.231c0 .011-.13 4.457-.747 7.259-.278 1.26-.632 2.657-.995 4.086-.573 2.246-1.166 4.581-1.494 6.527a230.46 230.46 0 00-.141 2.229c-.488 8.1-.998 16.635-11.234 17.317-2.845.189-4.263-.552-5.535-1.216-.658-.343-1.275-.665-2.034-.786-1.402-.227-4.655-.277-5.039-.283h-.068a.497.497 0 01-.457-.535l.292-3.808c.003-.032-.151-.233-.372-.634-1.276-2.315-4.523-8.207.136-12.954l.008-.009c2.492-2.572 6.693-3.661 10.876-4.741 3.537-.915 7.061-1.828 9.379-3.614zm6.483-150.538c-.012-.021-3.1-6.466-6.483-9.072-2.318-1.783-5.842-2.696-9.379-3.611-4.183-1.083-8.384-2.169-10.876-4.741l-.008-.009c-4.659-4.747-1.412-10.642-.136-12.954.221-.404.375-.602.372-.637l-.292-3.809a.495.495 0 01.457-.531h.068c.381-.006 3.637-.059 5.039-.283.759-.122 1.376-.443 2.034-.789 1.272-.664 2.69-1.402 5.535-1.213 10.236.682 10.746 9.217 11.234 17.317.044.732.088 1.461.141 2.226.328 1.948.921 4.281 1.494 6.53.363 1.429.717 2.823.995 4.083.617 2.802.747 7.251.747 7.262a.496.496 0 01-.942.231zM287.161 333.902l2.164-1.219.924 1.222c1.234 1.627 4.643 1.606 6.908-.038l1.73-1.258 1.449 1.258c1.907 1.653 5.465 1.656 7.738.006 1.591-1.157 1.812-1.178 2.863-.301.626.525 2.465 1.121 4.086 1.328 2.92.369 2.964.349 4.673-2.152 1.429-2.093 1.653-2.94 1.311-4.971-.224-1.346-.469-3.513-.54-4.815-.13-2.356-.115-2.371 3.404-3.567 1.942-.661 4.192-1.546 4.997-1.968 1.409-.735 5.282-5.179 5.282-6.055 0-.234-1.514-.588-3.363-.792-7.359-.805-8.608-4.661-3.823-11.823 7.803-11.681 12.512-23.056 12.544-30.303.015-3.239.204-4.328.629-3.623 1.745 2.878-1.379 14.95-6.111 23.617l-1.904 3.49 1.819-.408c.997-.224 6.875-2.645 13.06-5.378 16.927-7.481 22.743-8.945 33.698-8.497 9.179.378 13.087 2.129 19.567 8.759 3.434 3.513 6.74 6.026 12.789 9.722 12.889 7.87 13.426 8.552 14.04 17.81.62 9.379.31 9.887-6.961 11.454-6.214 1.341-10.108 4.166-11.153 8.095-.558 2.096.614 2.155 3.749.192l2.297-1.441 1.018 1.441c1.344 1.892 4.198 1.901 6.566.018l1.789-1.423 1.83 1.423c2.843 2.208 6.622 1.674 7.691-1.093.203-.531.752-.36 1.859.579 2.079 1.762 7.401 2.518 7.974 1.134.221-.529-.195-1.834-.924-2.899-3.097-4.532-4.068-6.693-4.106-9.161-.056-3.43.991-5.087 4.992-7.876 4.856-3.389 6.359-7.762 2.663-7.762-2.279 0-4.579-1.966-6.046-5.171-2.982-6.519-2.398-13.826 2.078-25.979 4.543-12.346 5.048-14.622 5.066-22.88.014-6.674-.157-7.829-1.715-11.489-.951-2.238-2.882-5.571-4.29-7.404l-2.562-3.336 3.288-2.657c10.041-8.115 7.986-21.4-4.1-26.516-3.696-1.568-4.62-1.704-11.1-1.662-3.888.026-9.816.525-13.173 1.11-3.424.596-9.216 1.074-13.193 1.089-6.312.024-7.383-.127-9.819-1.39-2.535-1.317-2.97-1.943-3.468-4.989-.101-.626-.549-1.252-.995-1.388-.865-.266-4.851 3.108-5.438 4.602-.292.738-.529.688-1.382-.295-.564-.652-1.355-2.155-1.753-3.336-1.007-2.969.227-5.196 3.805-6.863l2.778-1.296-1.638-.992c-3.378-2.046-9.122-.647-11.201 2.727-.587.957-1.228 1.739-1.423 1.742-.194 0-1.314-.909-2.483-2.025-4.36-4.157-2.86-10.312 2.973-12.189 3.112-1.001 5.863-.237 6.436 1.785.877 3.091 3.593-.97 3.106-4.637-.322-2.439-.275-2.524 1.455-2.524 2.406 0 7.525 3.079 9.107 5.479 1.84 2.787 1.707 7.176-.319 10.448l-1.588 2.568 2.079-.405c3.049-.596 6.01-2.444 7.507-4.682 1.585-2.37 1.754-6.982.351-9.467-1.361-2.412-1.204-2.796.806-1.981 3.422 1.388 5.252 2.914 6.625 5.535 1.237 2.359 1.305 2.943.635 5.4-.411 1.514-1.332 3.507-2.04 4.431-1.105 1.432-1.143 1.674-.263 1.674 1.641 0 5.063-1.515 6.282-2.778.614-.638 1.508-2.211 1.99-3.493l.873-2.332 1.004 1.777c1.42 2.516 4.18 4.777 7.543 6.185 3.619 1.511 5.128 1.597 3.236.18-1.279-.953-3.629-7.684-2.917-8.343.419-.389 5.334 3.301 10.943 8.213 5.308 4.65 8.641 6.173 13.515 6.173 6.226 0 9.852-5.29 7.053-10.291-1.63-2.914-5.267-3.318-7.392-.824-.977 1.149-1.243 2.064-.957 3.268.348 1.474.213 1.671-1.166 1.671-1.81 0-5.376-2.258-11.711-7.419-9.662-7.864-21.403-14.533-29.878-16.968-5.441-1.562-17.061-2.173-22.59-1.184-5.987 1.069-13.066 4.411-16.922 7.986-6.834 6.34-6.943 14.775-.289 22.456l1.907 2.203-1.29 1.954c-1.878 2.846-1.718 6.675.398 9.494.93 1.243 1.869 2.259 2.087 2.259.216-.004.455-.801.529-1.775.186-2.468 1.272-4.121 3.135-4.776 1.677-.591 2.763-.31 10.445 2.68 8.083 3.147 21.376 3.366 35.508.579 6.929-1.367 15.1-1.284 18.696.183 6.586 2.695 8.116 9.701 3.271 15.02-2.096 2.303-4.118 3.239-10.908 5.057-5.166 1.385-6.389 1.476-18.132 1.361-10.032-.097-13.636.092-17.734.924-4.446.906-7.18.998-20.24.676l-15.097-.372 1.674 1.355c.921.745 2.22 1.66 2.89 2.035 1.14.637 1.101.723-.591 1.334-.994.36-3.202.655-4.906.655h-3.1l-.416 2.569c-.23 1.414-.212 3.064.039 3.666.369.889.233 1.019-.73.676-.652-.23-2.465-.685-4.032-1.01-1.565-.324-3.676-.985-4.685-1.467-1.698-.812-1.887-.791-2.512.29-.561.965-5.807 4.776-6.578 4.776-.124 0-.286-.735-.357-1.632-.071-.898-.83-3.236-1.683-5.196-.853-1.96-1.745-4.098-1.981-4.75-.354-.986-.516-1.036-.945-.295-.283.49-.699 1.824-.921 2.966-.224 1.143-1.015 3-1.759 4.128l-1.349 2.049-.865-1.754c-.924-1.878-2.459-3.829-3.017-3.829-.186 0-.508.602-.712 1.337-.422 1.535-4.065 5.789-4.956 5.789-.328 0-.597-1.204-.597-2.671 0-1.47-.289-2.672-.64-2.672-.355 0-.644.378-.644.844 0 1.131-3.111 4.499-4.153 4.499-.458 0-1.19.399-1.63.889-1.146 1.278-2.084 1.098-1.603-.304.227-.658.08-2.196-.325-3.416a1308.93 1308.93 0 01-.959-2.884c-.154-.46-1.27-.339-3.629.398-3.814 1.193-5.092.984-3.132-.516.718-.546 1.81-2.444 2.424-4.216.617-1.771 1.526-3.344 2.019-3.495.694-.21.655.05-.159 1.128-.585.77-1.063 1.807-1.066 2.306 0 .498-.44 1.682-.974 2.627-.534.948-.871 1.815-.747 1.931.124.111 1.576-.426 3.224-1.196l2.999-1.402.012 1.254c.009.691.369 2.513.803 4.047l.791 2.791 2.043-.916c2.087-.936 4.062-4.271 4.062-6.857 0-1.279.75-1.081 1.057.277.092.398.564 1.895 1.048 3.327l.883 2.601 1.399-1.645c.767-.903 1.733-2.674 2.14-3.935.712-2.19 1.828-3.132 1.828-1.541 0 1.146 3.206 5.258 3.823 4.904.298-.172.894-1.712 1.322-3.431.892-3.566 2.33-5.992 3.245-5.47.342.195.478.576.298.847-.18.269.558 2.589 1.641 5.155 1.081 2.565 2.17 5.148 2.415 5.739.396.95.753.811 3.073-1.187 1.447-1.246 2.757-2.639 2.914-3.097.239-.694.561-.667 1.913.151 1.889 1.142 8.239 2.984 8.73 2.533.183-.171.372-1.798.419-3.617l.082-3.306 1.828.369c1.003.203 3.117.189 4.694-.03l2.866-.395-2.556-1.713c-1.406-.938-2.825-2.157-3.156-2.703-.354-.582-1.606-1.078-3.02-1.196-3.829-.316-10.613-4.03-10.613-5.807 0-.334.939.233 2.087 1.26 2.548 2.279 6.087 3.708 9.178 3.708h2.315l-1.432-1.857c-.821-1.065-1.559-3.087-1.733-4.753-.274-2.654-.561-3.076-3.401-5-1.706-1.158-3.82-2.894-4.697-3.856l-1.594-1.75-.812 2.078c-.445 1.142-.995 2.078-1.213 2.078-.221 0-1.081-.667-1.913-1.485-.83-.815-1.674-1.479-1.877-1.476-.204.003-.939 1.104-1.633 2.445l-1.267 2.435-.974-1.405c-.537-.774-1.807-2.14-2.822-3.038-1.013-.897-1.547-1.632-1.184-1.632s1.612.935 2.781 2.078l2.123 2.081.862-1.523c.513-.904.705-2.294.472-3.416-.337-1.635-.289-1.73.351-.705.411.655 1.651 1.907 2.76 2.784l2.017 1.594 1.39-2.486c1.385-2.474 1.394-2.477 2.023-1.001.841 1.975 6.937 6.849 12.127 9.698.797.44.46-1.069-1.016-4.541-.392-.92-.711-2.577-.711-3.684 0-1.641-.484-2.371-2.636-3.967-3.106-2.306-4.11-3.947-4.697-7.667-.236-1.506-.78-3.182-1.208-3.726-.634-.803-.738-.354-.569 2.445.115 1.886-.136 4.23-.558 5.207l-.765 1.783-.593-1.485c-.325-.817-1.766-2.235-3.203-3.156-1.435-.918-2.442-1.824-2.238-2.013.203-.189 1.68.65 3.283 1.863 2.438 1.845 2.975 2.046 3.312 1.231.395-.954 0-5.113-.768-8.018-.381-1.449-.348-1.444 1.485.345 1.352 1.32 2.102 2.896 2.681 5.642.738 3.489 1.107 4.071 4.416 6.902 1.984 1.7 3.714 2.996 3.838 2.881.127-.118.378-4.516.558-9.78.345-10.088-.044-12.491-2.536-15.608l-1.278-1.6 2.01-2.117c2.625-2.763 3.829-4.977 4.352-7.997l.425-2.456-2.27 2.098c-1.86 1.716-2.746 2.097-4.901 2.097-2.131 0-2.964-.349-4.399-1.843-1.724-1.791-4.779-3.516-7.716-4.354-1.084-.31-1.447-.177-1.447.54 0 .526-.599 2.04-1.331 3.366l-1.332 2.415-2.79-2.693c-1.712-1.65-3.743-2.934-5.255-3.324-3.861-.989-4.071-.891-4.071 1.916 0 4.257-1.862 5.048-5.213 2.22-2.556-2.158-4.676-2.627-9.524-2.108l-3.743.402.673 1.65c.564 1.376.437 1.957-.767 3.522-1.958 2.536-4.499 3.634-8.411 3.634-1.801 0-4.056.366-5.013.809-.953.446-3.324.956-5.266 1.139-1.946.18-4.018.505-4.606.721-.921.333-1.021.059-.723-1.984.452-3.13-1.786-5.435-5.275-5.435-4.526 0-6.613 3.95-4.842 9.16a39.06 39.06 0 01.992 3.517c.213.965 2.252 3.524 4.75 5.963 2.406 2.35 4.682 4.794 5.054 5.432.375.64 1.609 1.665 2.742 2.279l2.067 1.116-.272-2.156c-.301-2.367.228-2.739 1.521-1.068.46.596 1.635 1.565 2.607 2.146 1.532.918 1.765.936 1.765.139 0-.505.313-1.671.694-2.592l.693-1.671 1.205 2.276c.661 1.249 2.813 4.092 4.783 6.315 3.819 4.316 6.146 9.137 4.947 10.247-.487.451-1.807.416-4.534-.121-2.117-.414-4.736-.632-5.819-.487-2.211.301-2.385.023-1.025-1.639 1.436-1.754 1.208-2.043-1.611-2.043-3.265 0-11.366-1.526-14.475-2.728-3.022-1.166-3.719-.876-4.611 1.922-.401 1.258-1.133 3.54-1.629 5.069l-.901 2.784 3.271-.31c1.798-.168 4.112-.552 5.143-.853 1.027-.301 1.963-.461 2.078-.355.115.104-.346 1.193-1.018 2.415l-1.229 2.223 2.041-.407c1.121-.221 2.81-.767 3.748-1.21 1.639-.774 1.772-.718 3.062 1.304 1.588 2.486 2.858 2.386 3.141-.253.292-2.725 1.211-2.324 2.941 1.29 1.661 3.474 3.391 4.702 3.725 2.642.109-.685 1.007-1.798 1.99-2.474 1.993-1.37 3.492-.959 4.354 1.193.889 2.222-1.098 4.516-6.875 7.935-11.576 6.843-18.303 16.207-20.222 28.14-1.733 10.763 3.678 21.887 14.533 29.875 5.193 3.823 13.447 7.859 12.921 6.318-2.226-6.536-2.152-19.012.124-21.117.343-.316.225.986-.26 2.894-1.809 7.102-1.024 12.761 3.614 26.028 4.192 11.998 3.611 17.126-2.323 20.515-1.907 1.086-3.133 1.266-8.257 1.207-5.562-.068-6.167.042-7.954 1.429-1.73 1.346-3.973 5.766-3.973 7.826 0 1.119 1.269.972 3.767-.437l.003-.003z"/><path fill-rule="nonzero" d="M286.494 332.698l2.158-1.216a1.376 1.376 0 011.789.395l.906 1.199c.339.445 1.089.667 1.963.664a5.326 5.326 0 003.038-.989l1.73-1.258a1.382 1.382 0 011.771.13l1.388 1.205c.696.602 1.735.906 2.831.906 1.133.003 2.299-.324 3.197-.977.992-.72 1.591-1.092 2.303-1.166.888-.095 1.428.239 2.252.927.177.147.629.339 1.213.528.674.219 1.45.399 2.164.491 1.196.15 1.798.224 2.04.114.251-.114.611-.637 1.323-1.676.626-.919.98-1.535 1.125-2.085.132-.504.103-1.065-.036-1.886-.115-.7-.239-1.606-.339-2.497a48.643 48.643 0 01-.219-2.468c-.086-1.577-.121-2.371.712-3.245.661-.691 1.653-1.033 3.625-1.703.95-.322 1.978-.703 2.869-1.051.877-.346 1.594-.653 1.937-.83.549-.289 1.715-1.455 2.769-2.663.446-.51.859-.994 1.172-1.378a21.11 21.11 0 00-1.535-.219c-4.272-.469-6.811-1.945-7.628-4.478-.771-2.382.171-5.53 2.81-9.48 3.853-5.765 6.934-11.445 9.057-16.573 2.09-5.051 3.239-9.529 3.253-12.972.009-1.709.065-2.866.178-3.516.534-3.067 1.52-3.259 3.002-.811 1.072 1.771.77 5.898-.472 10.692-1.178 4.558-3.186 9.858-5.606 14.292l-.358.655c.774-.292 1.848-.723 3.126-1.249a372.364 372.364 0 008.444-3.619c8.534-3.77 14.282-6.028 19.309-7.298 5.081-1.281 9.382-1.541 14.998-1.311 4.764.195 8.186.756 11.3 2.152 3.118 1.394 5.837 3.579 9.199 7.021a46.394 46.394 0 005.258 4.658c1.954 1.485 4.26 3.014 7.262 4.848 6.586 4.024 10.026 6.217 11.989 8.709 2.066 2.621 2.382 5.272 2.707 10.19.328 4.972.398 7.614-.72 9.453-1.193 1.966-3.307 2.569-7.328 3.434-2.913.628-5.266 1.593-6.993 2.845-1.482 1.075-2.495 2.365-2.991 3.838.405-.204.924-.505 1.562-.906l2.294-1.441a1.378 1.378 0 011.854.366c.36.505.714 1.042 1.092 1.532.39.491.986.744 1.662.756.8.015 1.712-.286 2.583-.906l.062-.042.21-.162 1.789-1.423a1.379 1.379 0 011.703-.008l1.831 1.419c.436.343.894.6 1.349.774.791.307 1.6.381 2.311.236.638-.127 1.193-.434 1.559-.909a2.26 2.26 0 00.339-.597c.414-1.068 1.14-1.44 2.286-1.083.484.15 1.05.517 1.747 1.107.328.274.788.531 1.323.75 1.006.419 2.205.688 3.226.755.535.033.966.045 1.199.018a.69.69 0 01-.077-.174 5.254 5.254 0 00-.646-1.293c-1.592-2.326-2.646-4.065-3.319-5.568-.717-1.6-1.003-2.922-1.027-4.342-.033-1.996.272-3.496 1.187-4.939.859-1.358 2.238-2.58 4.393-4.086 1.96-1.367 3.297-2.869 3.873-4.097.186-.399.277-.73.263-.975l-.003-.068c-.107-.074-.328-.118-.682-.118-1.477 0-2.929-.611-4.222-1.718-1.19-1.019-2.256-2.474-3.073-4.263-1.594-3.48-2.235-7.153-1.883-11.555.345-4.289 1.635-9.272 3.917-15.469 2.255-6.128 3.507-9.748 4.18-12.794.67-3.02.797-5.583.803-9.61.009-3.253-.03-5.157-.257-6.674-.212-1.438-.617-2.56-1.349-4.275-.452-1.069-1.145-2.406-1.898-3.705-.75-1.293-1.55-2.533-2.22-3.404l-2.56-3.336a1.376 1.376 0 01.242-1.916l3.278-2.65c2.302-1.863 3.914-4.004 4.861-6.242.933-2.208 1.226-4.516.904-6.748-.325-2.226-1.267-4.381-2.799-6.273-1.606-1.99-3.864-3.697-6.74-4.913-1.732-.735-2.81-1.133-4.171-1.337-1.437-.215-3.235-.239-6.388-.218-1.866.014-4.287.144-6.678.345-2.359.198-4.638.463-6.27.75-1.757.304-4.104.578-6.507.779-2.367.195-4.845.319-6.911.328-3.232.012-5.131-.024-6.556-.225-1.559-.221-2.545-.616-3.898-1.319-1.475-.765-2.355-1.355-3.002-2.282-.629-.91-.912-1.978-1.195-3.708a.632.632 0 00-.101-.257c-.177.145-.732.714-1.47 1.34-1.033.877-2.013 1.884-2.223 2.412-.431 1.095-.965 1.577-2.046 1.343-.552-.118-1.027-.516-1.656-1.239-.354-.408-.756-1.04-1.119-1.73a15.049 15.049 0 01-.9-2.064c-.632-1.869-.543-3.537.286-5.03.777-1.403 2.188-2.569 4.243-3.528l.38-.178c-1.284-.531-2.893-.563-4.422-.188-1.792.434-3.425 1.414-4.266 2.78a13.928 13.928 0 01-.962 1.379c-.508.62-1.09 1.007-1.621 1.013h-.027a1.376 1.376 0 01-.773-.248 6 6 0 01-.956-.653 30.681 30.681 0 01-1.686-1.499c-1.261-1.202-2.105-2.563-2.554-3.962a7.907 7.907 0 01-.192-4.239c.319-1.367 1.01-2.648 2.046-3.735 1.054-1.107 2.465-2.001 4.201-2.559.157-.05.286-.092.39-.121 1.712-.485 3.347-.499 4.661-.112 1.37.404 2.415 1.231 2.938 2.423.469-.894.782-2.249.611-3.557-.204-1.523-.278-2.332.127-3.038.563-.98 1.298-1.042 2.689-1.042 1.452 0 3.596.853 5.568 2.037 1.933 1.166 3.779 2.69 4.688 4.068 1.077 1.636 1.579 3.711 1.514 5.834a12.462 12.462 0 01-1.706 5.916 11.686 11.686 0 002.822-1.282c1.151-.717 2.12-1.6 2.757-2.553.647-.966 1.01-2.448 1.066-3.971.056-1.529-.195-3.04-.767-4.056-.901-1.594-1.252-2.637-.945-3.392.514-1.258 1.609-1.29 3.463-.541 1.845.748 3.274 1.547 4.449 2.528 1.198 1 2.102 2.172 2.875 3.649.7 1.334 1.072 2.19 1.184 3.143.115.972-.053 1.86-.434 3.254-.224.823-.588 1.78-.989 2.654-.198.425-.404.835-.617 1.21.236-.091.475-.189.717-.295 1.069-.472 2.064-1.057 2.545-1.556.227-.239.534-.691.842-1.231.327-.578.64-1.222.853-1.786l.873-2.332a1.375 1.375 0 012.513-.145l.974 1.727c.62 1.098 1.553 2.158 2.719 3.112 1.189.977 2.604 1.824 4.156 2.474l.21.085a24.354 24.354 0 01-1.074-2.662c-.724-2.12-1.055-4.302-.482-5.093l-.003-.003c.065-.085.133-.162.204-.227a1.378 1.378 0 011.854-.018c.927.343 2.099 1.045 3.43 2.046 2.014 1.511 4.676 3.687 7.502 6.161 2.55 2.235 4.611 3.711 6.583 4.611 1.904.871 3.781 1.214 6.025 1.214 1.488 0 2.79-.343 3.835-.927.892-.499 1.597-1.169 2.075-1.946a4.806 4.806 0 00.724-2.548c0-.903-.248-1.863-.783-2.813l-.035-.068a3.612 3.612 0 00-.791-.962 3.03 3.03 0 00-1.653-.72 2.91 2.91 0 00-1.721.362l-.065.033a3.381 3.381 0 00-.877.747c-.361.419-.582.777-.679 1.11-.083.275-.074.579.015.948.268 1.136.31 1.842-.145 2.494-.502.721-1.193.874-2.362.874-1.166 0-2.748-.632-4.891-1.99-1.958-1.24-4.479-3.126-7.688-5.739a112.3 112.3 0 00-15.194-10.391c-5.105-2.902-10.055-5.131-14.194-6.321-2.628-.752-6.779-1.281-10.956-1.5-4.174-.218-8.348-.129-11.02.349-2.876.51-6.017 1.573-8.91 2.937-2.878 1.361-5.488 3.008-7.312 4.7-3.13 2.902-4.721 6.256-4.765 9.733-.044 3.522 1.479 7.236 4.579 10.814l1.907 2.202a1.38 1.38 0 01.065 1.719l-1.249 1.892a6.676 6.676 0 00-1.072 3.947 7.128 7.128 0 001.423 3.967l.248.325c.181-1.089.538-2.04 1.06-2.837l-.003-.003c.694-1.06 1.668-1.821 2.896-2.252 1.096-.384 1.981-.493 3.761-.036 1.521.39 3.75 1.22 7.632 2.734 3.891 1.514 9.072 2.326 15.011 2.421 5.993.097 12.753-.538 19.738-1.913 3.543-.7 7.416-1.028 10.873-.992 3.519.032 6.642.455 8.602 1.255 1.45.593 2.684 1.372 3.685 2.284 1.591 1.45 2.624 3.242 3.055 5.184.428 1.931.254 3.998-.563 6.002-.532 1.302-1.332 2.571-2.404 3.749-1.172 1.287-2.326 2.194-4.135 3.032-1.701.789-3.968 1.5-7.434 2.43-2.669.714-4.322 1.095-6.855 1.284-2.429.183-5.707.177-11.646.121-4.969-.05-8.355-.027-11.012.112-2.594.133-4.457.381-6.435.785-2.297.467-4.154.724-7.121.824-2.896.098-6.866.039-13.426-.121l-10.926-.269c.434.299.83.558 1.098.709 1.299.726 1.884 1.234 1.355 2.432-.292.659-.936.957-2.152 1.397-.588.212-1.494.401-2.477.534-.965.127-2.007.207-2.896.207v-.006l-1.928.003-.23 1.414c-.103.635-.15 1.316-.145 1.904.006.493.039.871.098 1.013.428 1.036.44 1.741-.201 2.335-.572.534-1.255.522-2.258.168-.284-.1-.857-.26-1.55-.431-.75-.189-1.58-.381-2.3-.531a29.035 29.035 0 01-2.686-.706c-.895-.28-1.739-.593-2.318-.868l-.909-.437c-.266.033.26.036.18.178-.378.652-1.99 2.01-3.593 3.176-1.67 1.213-3.492 2.288-4.174 2.288-.803 0-1.334-.599-1.547-1.568a9.947 9.947 0 01-.183-1.334c-.029-.351-.213-1.048-.484-1.89a32.864 32.864 0 00-1.087-2.866c-.421-.971-.832-1.931-1.163-2.716l-.07.348c-.13.668-.417 1.518-.771 2.35-.345.809-.771 1.633-1.193 2.271l-.003.005h.003l-1.352 2.049a1.372 1.372 0 01-1.907.387 1.363 1.363 0 01-.49-.57l-.844-1.718a14.27 14.27 0 00-1.37-2.211c-.44.974-1.396 2.317-2.385 3.471-1.299 1.518-2.834 2.805-3.699 2.805-.898 0-1.506-.714-1.763-1.869a8.574 8.574 0 01-.165-1.133c-.201.251-.41.496-.626.729-1.131 1.225-2.559 2.273-3.48 2.273l-.163.089a1.732 1.732 0 00-.443.342c-.628.703-1.29 1.119-1.848 1.255a1.858 1.858 0 01-1.245-.101 1.708 1.708 0 01-.939-1.059c-.151-.47-.139-1.072.103-1.769.05-.147.05-.487.009-.921a7.687 7.687 0 00-.337-1.615l-.72-2.167c-.496.083-1.207.269-2.152.567-1.851.579-3.206.851-3.983.827-.54-.015-.977-.165-1.301-.446-.6-.522-.732-1.163-.381-1.919.192-.41.617-.877 1.287-1.387.215-.166.543-.629.894-1.24.399-.691.786-1.526 1.066-2.338.263-.756.579-1.482.895-2.096a48.538 48.538 0 01-3.006 1.91c-5.623 3.327-10.061 7.25-13.317 11.782-3.241 4.511-5.323 9.638-6.246 15.389-.821 5.098.056 10.291 2.426 15.166 2.397 4.924 6.318 9.526 11.561 13.384 3.203 2.356 7.581 4.789 10.232 5.878-.771-3.182-1.146-7.126-1.125-10.678.026-4.543.765-8.582 2.194-9.901l.041-.039a1.51 1.51 0 01.75-.354c.847-.139 1.387.233 1.632 1.06.056.195.083.431.08.699v.003c-.009.603-.183 1.645-.496 2.876-.859 3.38-1.104 6.415-.582 10.173.535 3.864 1.872 8.52 4.157 15.062 2.167 6.199 3.097 10.666 2.707 14.091-.419 3.702-2.273 6.146-5.647 8.074-1.104.631-2.017.998-3.401 1.201-1.252.183-2.902.216-5.553.183-2.693-.032-4.175-.024-5.134.148-.767.139-1.237.439-1.954.997-.709.55-1.562 1.81-2.256 3.177-.487.96-.879 1.937-1.065 2.713.413-.162.924-.416 1.532-.756l.071-.041zm2.459 1.777l-1.119.632c-1.101.62-2.017 1.024-2.743 1.216-.584.151-1.095.174-1.538.068-.705-.168-1.178-.591-1.411-1.261a2.312 2.312 0 01-.133-.788c0-1.245.626-3.097 1.491-4.8.859-1.694 1.993-3.315 3.02-4.112 1.066-.83 1.792-1.278 3.162-1.526 1.184-.213 2.784-.225 5.65-.192 2.477.029 4.003.003 5.122-.163.986-.144 1.642-.41 2.442-.868 2.559-1.461 3.961-3.273 4.269-5.984.339-2.987-.541-7.082-2.566-12.88a168.483 168.483 0 01-2.161-6.554c-.278.03-.59.012-.936-.053-.481-.091-1.116-.295-1.848-.59-2.807-1.131-7.546-3.747-10.97-6.268-5.609-4.13-9.822-9.083-12.411-14.409-2.615-5.373-3.578-11.123-2.665-16.792.994-6.181 3.238-11.699 6.733-16.564 3.484-4.848 8.198-9.028 14.147-12.547 2.763-1.635 4.594-2.97 5.597-4.13.73-.841.936-1.514.7-2.108a3.481 3.481 0 00-.345-.67l.002-.003-.002-.003c-.16-.236-.322-.375-.485-.422-.171-.05-.404-.015-.699.103a4.089 4.089 0 00-.765.423c-.381.262-.75.613-1.033.965-.222.274-.366.496-.381.593-.106.647-.328 1.149-.649 1.509-.479.534-1.078.738-1.766.629-.454-.074-.915-.304-1.361-.679-.791-.668-1.7-1.949-2.548-3.723a61.013 61.013 0 00-.457-.936c-.13.602-.322 1.089-.57 1.459-.366.548-.847.876-1.429.985-.543.104-1.098-.011-1.647-.339-.608-.366-1.255-1.054-1.895-2.061-.493-.77-.741-1.157-.782-1.172-.125-.056-.089.163-.535.372-.516.246-1.234.517-1.972.756-.741.239-1.5.446-2.102.567l-2.04.405a1.38 1.38 0 01-1.47-2.017l1.187-2.152c-.523.124-1.178.251-1.872.366a42.77 42.77 0 01-2.958.39l-3.212.301a1.378 1.378 0 01-1.494-1.783l.904-2.781.853-2.651.776-2.415c.573-1.807 1.158-2.834 2.285-3.303 1.066-.443 2.273-.201 4.13.516 1.474.567 4.183 1.225 6.938 1.742 2.736.517 5.482.886 7.041.886 1.848 0 2.913.177 3.477.894.659.833.482 1.65-.301 2.752.591-.015 1.32.011 2.096.076 1.099.092 2.335.26 3.445.475 1.305.257 2.244.393 2.876.408.348.009.437.077.463.053.101-.094-.26-.986-.897-2.311-.862-1.781-2.323-3.953-4.148-6.011a61.726 61.726 0 01-2.949-3.605c-.756-.997-1.403-1.921-1.807-2.603l-.053.183c-.094.357-.154.649-.154.785 0 1.393-.342 2.063-1.797 1.948-.505-.041-1.102-.336-2.055-.906a14.494 14.494 0 01-1.662-1.187l-.269-.227.133 1.06a1.374 1.374 0 01-2.004 1.464l-2.064-1.116a12.178 12.178 0 01-1.886-1.287c-.611-.508-1.125-1.051-1.391-1.509-.133-.227-.732-.912-1.588-1.833a101.399 101.399 0 00-3.242-3.309c-1.296-1.264-2.47-2.56-3.35-3.664-.972-1.222-1.633-2.302-1.786-2.996a30.49 30.49 0 00-.423-1.647 36.473 36.473 0 00-.525-1.716c-.478-1.402-.706-2.73-.706-3.941 0-1.582.384-2.985 1.105-4.121.75-1.178 1.845-2.049 3.241-2.524a7.698 7.698 0 012.504-.396c.422 0 .838.03 1.245.092 1.621.233 2.967.924 3.924 1.942.986 1.051 1.544 2.424 1.544 3.989 0 .31-.027.64-.077.983l-.032.23c.292-.056.623-.115.977-.168a48.325 48.325 0 012.899-.36 24.874 24.874 0 002.836-.449c.86-.186 1.589-.39 1.973-.57.584-.272 1.52-.513 2.556-.679.989-.159 2.081-.26 3.038-.26 1.777 0 3.215-.236 4.396-.747 1.142-.495 2.09-1.266 2.925-2.35.473-.613.726-1 .788-1.281.045-.195-.029-.46-.2-.882l-.635-1.55a1.472 1.472 0 01-.139-.47 1.379 1.379 0 011.225-1.514l3.744-.402c2.565-.274 4.44-.283 6.06.077 1.704.375 3.047 1.125 4.497 2.347.811.688 1.485 1.11 2.01 1.278.213.068.354.086.428.051.059-.024.127-.133.207-.325.198-.472.301-1.199.301-2.173 0-1.984.124-3.035 1.385-3.625.938-.443 2.155-.198 4.404.378.9.233 1.922.708 2.946 1.355.989.626 2.002 1.42 2.923 2.308l1.499 1.447.461-.839c.336-.605.641-1.26.865-1.827.183-.46.295-.788.295-.877 0-.992.349-1.617 1.217-1.942.531-.201 1.157-.16 1.986.077a21.692 21.692 0 014.609 1.948c1.464.827 2.772 1.792 3.719 2.778.588.608 1.025.974 1.479 1.163.458.192 1.045.254 1.931.254.894 0 1.503-.068 2.022-.292.555-.237 1.131-.685 1.946-1.441l2.231-2.061a1.386 1.386 0 011.205-.38c.75.127 1.252.838 1.125 1.588l-.425 2.459c-.287 1.653-.765 3.097-1.538 4.52-.756 1.39-1.784 2.724-3.174 4.192l-1.184 1.245.532.668c1.393 1.744 2.199 3.291 2.612 5.824.381 2.353.396 5.547.219 10.684-.092 2.683-.198 5.11-.298 6.852-.059 1.074-.154 1.981-.275 2.654.074.443-.068.915-.425 1.243-.331.307-.797.363-1.349.209.012.163.015.334.015.511 0 .475.071 1.072.182 1.654.113.581.261 1.124.417 1.49.767 1.807 1.246 3.132 1.435 3.98.611 2.736-.172 3.504-2.35 2.308a43.62 43.62 0 01-1.621-.936c.05.328.094.688.136 1.09.074.72.274 1.526.546 2.273.263.723.581 1.364.906 1.783l1.432 1.857a1.378 1.378 0 01-.121 1.815l.068.077a1.35 1.35 0 01.513-.085l15.101.372c6.5.159 10.43.215 13.275.121 2.776-.092 4.511-.334 6.658-.771 2.119-.431 4.106-.697 6.845-.838 2.675-.139 6.112-.163 11.174-.112 5.804.056 9.01.062 11.419-.122 2.306-.171 3.847-.528 6.347-1.198 3.322-.889 5.462-1.556 6.991-2.267 1.423-.658 2.329-1.373 3.253-2.386.862-.947 1.491-1.936 1.899-2.931.602-1.473.732-2.979.422-4.372-.307-1.385-1.06-2.678-2.226-3.74-.78-.712-1.739-1.317-2.867-1.778-1.632-.667-4.393-1.021-7.59-1.054a52.66 52.66 0 00-10.32.951c-7.15 1.408-14.106 2.057-20.311 1.957-6.262-.1-11.767-.974-15.959-2.603-3.797-1.483-5.955-2.286-7.319-2.637-1.098-.283-1.597-.233-2.178-.03a2.895 2.895 0 00-1.494 1.164l-.006-.003v.003c-.396.602-.638 1.414-.711 2.415a7.759 7.759 0 01-.266 1.543c-.275.928-.844 1.503-1.639 1.503-.507.003-1.151-.422-1.783-1.104a22.56 22.56 0 01-1.405-1.703 9.87 9.87 0 01-1.969-5.506 9.357 9.357 0 011.523-5.565l.717-1.089-1.224-1.414c-3.555-4.104-5.302-8.449-5.249-12.647.056-4.246 1.936-8.281 5.638-11.717 2.034-1.887 4.892-3.699 8.012-5.173 3.109-1.467 6.498-2.609 9.609-3.164 2.858-.511 7.263-.611 11.638-.381 4.378.23 8.756.791 11.569 1.597 4.337 1.246 9.497 3.569 14.797 6.578a115.35 115.35 0 0115.569 10.651c3.126 2.545 5.559 4.366 7.422 5.547 1.523.965 2.577 1.461 3.238 1.544-.189-.818-.186-1.562.036-2.32.209-.712.611-1.388 1.228-2.114a6.213 6.213 0 011.603-1.352l.085-.051a5.64 5.64 0 013.348-.696 5.777 5.777 0 013.15 1.367 6.421 6.421 0 011.405 1.691l.047.08c.777 1.387 1.137 2.804 1.137 4.162a7.54 7.54 0 01-1.143 3.995c-.726 1.175-1.771 2.175-3.067 2.902-1.446.809-3.206 1.284-5.181 1.284-2.627 0-4.856-.419-7.167-1.473-2.238-1.022-4.5-2.631-7.254-5.043-2.784-2.438-5.385-4.567-7.336-6.031-1.116-.838-1.352-1.925-1.574-2.196l.824 2.409c.549 1.612 1.276 3.25 1.786 3.805l.003.003-.003.006h.003c.617.463 1.007.874 1.187 1.219h-.003l.003.006c.46.901.248 1.585-.596 2.052-.325.18-.739.242-1.22.189-.753-.083-2.128-.514-3.955-1.278-1.813-.756-3.464-1.745-4.848-2.882-1.163-.95-2.149-2.019-2.911-3.156-.251.606-.564 1.24-.886 1.804-.413.729-.864 1.379-1.251 1.78-.735.765-2.061 1.571-3.416 2.17-1.373.605-2.843 1.033-3.855 1.033-1.512 0-2.208-.381-1.972-1.889.082-.52.452-1.104 1.145-2.005.29-.375.641-1.009.971-1.726.337-.733.641-1.533.83-2.224.286-1.059.419-1.691.357-2.22-.065-.54-.345-1.16-.882-2.184-.597-1.142-1.294-2.046-2.209-2.811-.696-.581-1.535-1.095-2.565-1.582.658 1.42.948 3.245.883 5.031-.074 1.995-.591 4.003-1.53 5.405-.859 1.284-2.119 2.447-3.586 3.362a14.487 14.487 0 01-4.801 1.908l-2.078.404v-.003a1.375 1.375 0 01-1.432-2.069l1.588-2.569a9.61 9.61 0 001.403-4.723c.05-1.583-.301-3.097-1.063-4.248-.673-1.025-2.179-2.238-3.802-3.215-1.586-.954-3.204-1.642-4.157-1.642-.34 0-.118-.673-.307-.348-.029.056.094.401.215 1.314.296 2.223-.419 4.59-1.325 5.889-.334.475-.709.847-1.104 1.081-.617.363-1.267.437-1.913.153-.641-.28-1.16-.9-1.453-1.933l-.011-.045c-.154-.475-.606-.826-1.243-1.012-.836-.248-1.931-.222-3.141.121l-.295.088c-1.276.411-2.297 1.054-3.047 1.839a5.325 5.325 0 00-1.355 2.462 5.171 5.171 0 00.127 2.773c.313.974.918 1.936 1.83 2.807.49.467.963.892 1.352 1.219.145-.203.295-.428.437-.658 1.237-2.007 3.513-3.415 5.96-4.012 2.445-.593 5.108-.39 7.121.83l1.532.926c.275.137.505.361.644.659a1.379 1.379 0 01-.668 1.833l-2.774 1.293c-1.524.709-2.521 1.491-3.006 2.362-.431.779-.454 1.709-.082 2.813a12.246 12.246 0 001.204 2.483c.599-.791 1.473-1.677 2.356-2.423 1.488-1.261 3.203-2.185 4.115-1.905.514.157.989.537 1.338 1.022.298.416.525.935.61 1.458.216 1.314.399 2.081.745 2.577.33.475.935.859 1.998 1.411 1.08.561 1.848.874 3.011 1.037 1.296.183 3.091.215 6.173.203h.003c1.91-.009 4.313-.133 6.69-.327 2.344-.195 4.605-.458 6.27-.747 1.727-.301 4.089-.579 6.507-.783 2.382-.2 4.871-.33 6.893-.342 3.324-.024 5.228.003 6.799.236 1.641.248 2.878.7 4.841 1.532 3.315 1.403 5.934 3.392 7.817 5.722 1.846 2.285 2.985 4.894 3.378 7.61.395 2.71.041 5.521-1.095 8.201-1.122 2.648-3.003 5.163-5.672 7.322l-2.24 1.812 1.744 2.273c.739.963 1.609 2.306 2.415 3.697.803 1.387 1.553 2.833 2.049 4.005.827 1.94 1.287 3.227 1.544 4.954.245 1.641.287 3.652.277 7.073-.008 4.231-.144 6.938-.867 10.203-.718 3.241-1.99 6.937-4.278 13.152-2.194 5.957-3.433 10.704-3.755 14.734-.313 3.92.245 7.159 1.632 10.197.65 1.417 1.468 2.547 2.365 3.315.791.676 1.63 1.051 2.433 1.051.947 0 1.703.227 2.276.635.726.519 1.104 1.26 1.157 2.158.041.693-.139 1.473-.52 2.288-.761 1.623-2.423 3.533-4.791 5.187-1.842 1.284-2.988 2.285-3.64 3.309-.593.936-.788 1.981-.765 3.418.018 1.042.237 2.035.789 3.266.596 1.328 1.576 2.937 3.082 5.139.434.638.782 1.361.992 2.014.262.82.307 1.617.067 2.19a2.066 2.066 0 01-.333.543c-.676.8-2.073 1.101-3.646 1.001a13.602 13.602 0 01-4.112-.959c-.78-.322-1.491-.727-2.043-1.196l-.189-.157a3.69 3.69 0 01-.227.322c-.792 1.019-1.922 1.668-3.201 1.925-1.201.239-2.541.121-3.84-.378a8.022 8.022 0 01-2.052-1.163l-.974-.759-.942.75c-.074.059-.18.139-.316.237l-.074.055c-1.361.966-2.851 1.435-4.221 1.412-1.497-.027-2.846-.626-3.773-1.793-.056-.067-.109-.141-.162-.215l-.266-.375-1.193.747-.003-.003-.003.003c-1.812 1.137-3.15 1.683-4.056 1.638-1.762-.091-2.32-1.204-1.75-3.344.608-2.282 2.019-4.228 4.162-5.784 2.034-1.475 4.738-2.595 8.039-3.306 3.247-.699 4.927-1.139 5.547-2.164.699-1.148.614-3.451.322-7.858-.287-4.34-.547-6.658-2.126-8.659-1.68-2.135-4.954-4.216-11.257-8.062-3.046-1.863-5.419-3.44-7.489-5.01a49.577 49.577 0 01-5.568-4.927c-3.117-3.192-5.594-5.196-8.346-6.43-2.754-1.231-5.877-1.733-10.291-1.913-5.34-.222-9.423.026-14.22 1.234-4.848 1.222-10.472 3.439-18.867 7.147a368.39 368.39 0 01-8.509 3.64c-2.435 1.004-4.233 1.689-4.806 1.819l-1.818.407a1.37 1.37 0 01-.434.027 116.952 116.952 0 01-3.882 6.217c-2.143 3.212-2.973 5.573-2.477 7.112.449 1.387 2.214 2.24 5.302 2.58.989.106 1.889.256 2.542.41 1.269.298 2.058.904 2.058 1.748 0 .776-1.128 2.459-2.46 3.985-1.234 1.414-2.709 2.837-3.566 3.289-.463.242-1.275.59-2.208.956a69.94 69.94 0 01-2.985 1.096c-1.547.525-2.323.791-2.515.994-.02.021 0 .414.042 1.196.035.614.112 1.455.209 2.314.095.854.21 1.704.316 2.35.204 1.208.233 2.087-.018 3.038-.239.906-.711 1.76-1.514 2.934-.998 1.462-1.515 2.2-2.441 2.628-.939.431-1.819.331-3.54.112a15.152 15.152 0 01-2.669-.599c-.897-.289-1.68-.659-2.128-1.036-.231-.189-.089-.313-.207-.301-.059.005-.369.224-.968.661-1.373.998-3.124 1.497-4.812 1.494-1.73 0-3.422-.526-4.632-1.577l-.623-.54-.847.617c-1.367.992-3.082 1.497-4.644 1.503-1.703.011-3.28-.573-4.171-1.751l-.198-.26zm96.981-139.193c.026.006.041.009.011-.003l-.011.003zm-15.848-6.404a.956.956 0 00-.041-.002l.041.002zm29.053-15.956c-.015.032-.01.062.011.092.068-.248.103-.381-.011-.092zm45.454 15.08c.056-.083.023-.083-.033-.083-.026.121-.065.219.033.083zm-109.156 24.429l.009-.009c-.044 0-.038.003-.009.009zm.089.008c.047-.014.065-.02-.021-.02l-.059.003-.009.009.089.008zm18.161-4.578c-.171.203-.271.325-.053.124l.021-.021a.175.175 0 00.032-.103zm-61.304 6.052c.089.141.1.079.121-.042-.15-.088-.233-.144-.118.039l-.003.003zm-.841-1.663c.224.107.384.219.212.004-.038-.051-.1-.039-.212-.004zm-2.108 7.918c-.283-.121-.159-.059.08.068a.326.326 0 00-.08-.068z"/><path fill-rule="nonzero" d="M377.422 333.661l2.335-1.462 1.583 1.462c2.072 1.915 4.502 1.874 6.498-.116.868-.868 1.65-1.467 1.736-1.334.085.133.472.776.861 1.429.494.826 1.506 1.242 3.337 1.366 2.202.154 2.795-.056 3.669-1.29l1.045-1.473 2.297 1.441c6.285 3.941 9.635-.195 6.825-8.428-1.429-4.19-.644-6.542 3.962-11.874 1.942-2.246 3.531-4.647 3.534-5.332 0-1.089-.361-1.237-2.944-1.186-2.471.05-3.197-.21-4.496-1.609-2.12-2.273-1.993-4.877.375-7.767l1.89-2.309-3.354-2.22c-1.845-1.222-5.172-4.112-7.392-6.424-4.989-5.186-9.896-7.649-16.364-8.207l-4.337-.375.006 3.204c.009 4.124 1.993 8.088 7.407 14.807 6.155 7.641 6.583 8.824 6.834 18.809l.21 8.443-1.78 1.65c-1.609 1.488-2.335 1.68-7.528 1.972-4.945.278-5.984.525-7.434 1.78-1.927 1.665-2.503 2.571-3.099 4.871-.346 1.344-.207 1.636.785 1.636.664 0 2.258-.659 3.539-1.464z"/><path fill-rule="nonzero" d="M376.702 332.494l2.326-1.461a1.376 1.376 0 011.657.153l.003-.003 1.585 1.465c.767.711 1.564 1.06 2.323 1.045.756-.012 1.535-.387 2.27-1.122.638-.638 1.264-1.163 1.665-1.42a2.51 2.51 0 01.464-.239c.59-.213 1.113-.118 1.55.316.1.103.183.218.248.339l.277.449.546.918c.089.151.254.275.508.381.399.162.968.266 1.739.319.918.062 1.467.062 1.789-.05.207-.074.399-.284.67-.665l1.042-1.473a1.376 1.376 0 011.863-.36l2.288 1.435c1.385.868 2.557 1.281 3.478 1.296.569.009 1.03-.151 1.361-.455l.056-.047c.342-.34.584-.868.717-1.562.277-1.467.041-3.527-.821-6.057-.814-2.383-.986-4.275-.283-6.386.658-1.972 2.087-4.024 4.508-6.828a32.267 32.267 0 002.385-3.112c.342-.513.593-.909.72-1.131a24.448 24.448 0 00-1.455 0c-1.408.027-2.344-.041-3.171-.339-.897-.319-1.549-.841-2.356-1.706-1.319-1.42-1.939-2.973-1.859-4.656.077-1.603.803-3.247 2.175-4.924l.928-1.128-2.082-1.379c-.968-.64-2.311-1.709-3.696-2.91a62.306 62.306 0 01-3.929-3.708c-2.388-2.483-4.741-4.307-7.251-5.565-2.488-1.249-5.172-1.957-8.239-2.223l-2.84-.245.003 1.701c.003 1.845.457 3.675 1.529 5.815 1.125 2.247 2.923 4.842 5.574 8.131 3.173 3.937 4.874 6.226 5.854 8.918.974 2.683 1.154 5.573 1.281 10.719l.213 8.443c.008.434-.183.827-.494 1.087l-1.729 1.602c-.974.904-1.695 1.415-3.009 1.76-1.148.301-2.692.428-5.378.579-2.398.136-3.829.259-4.783.487-.794.192-1.269.478-1.827.959-.862.747-1.411 1.305-1.786 1.896l.003.002c-.343.538-.579 1.158-.815 2.023a12.393 12.393 0 002.199-1.081l.006-.003zm2.89 1.426l-1.322.83a1.503 1.503 0 01-.245.153c-.679.416-1.42.788-2.081 1.063-.804.331-1.553.537-2.061.537-1.069 0-1.727-.257-2.135-1.101-.28-.587-.239-1.263.018-2.255.337-1.299.673-2.215 1.216-3.068h.006c.543-.856 1.246-1.582 2.309-2.5.891-.773 1.665-1.237 2.988-1.553 1.166-.28 2.724-.419 5.269-.564 2.509-.138 3.924-.254 4.839-.493.749-.195 1.198-.525 1.833-1.113l1.325-1.225-.195-7.826c-.12-4.839-.283-7.534-1.121-9.848-.839-2.303-2.43-4.429-5.411-8.131-2.764-3.427-4.665-6.178-5.887-8.623-1.275-2.55-1.819-4.767-1.821-7.046l-.006-3.08a1.375 1.375 0 011.491-1.496l4.336.372c3.401.295 6.406 1.095 9.234 2.515 2.808 1.408 5.403 3.41 8.003 6.114a58.354 58.354 0 003.747 3.533c1.293 1.125 2.536 2.114 3.413 2.696l3.288 2.179a1.38 1.38 0 01.375 2.063l-1.892 2.309c-.992 1.213-1.515 2.317-1.562 3.306-.044.909.331 1.795 1.128 2.651.496.531.856.839 1.266.986.476.168 1.14.207 2.203.186 1.479-.03 2.352.012 2.973.263 1.124.454 1.369 1.134 1.369 2.296h-.003c-.003.623-.487 1.666-1.266 2.84a34.593 34.593 0 01-2.604 3.393c-2.181 2.527-3.448 4.315-3.976 5.901-.484 1.443-.334 2.825.28 4.629 1.021 2.993 1.281 5.535.918 7.445-.242 1.279-.764 2.309-1.532 3.05-.03.032-.059.062-.092.091-.853.779-1.948 1.184-3.247 1.163-1.42-.02-3.082-.566-4.909-1.715l-1.193-.747-.295.414c-.606.853-1.149 1.364-2.005 1.667-.744.26-1.594.29-2.878.201-1.06-.074-1.913-.242-2.601-.525-.833-.34-1.423-.838-1.824-1.512l-.098-.162c-.112.103-.23.218-.351.339-1.258 1.252-2.689 1.893-4.165 1.919-1.474.027-2.929-.563-4.234-1.768l-.815-.753zM246.123 309.232c0-1.069.49-1.353 2.893-1.686l2.893-.402-1.928-1.5c-2.293-1.782-2.506-3.176-.484-3.179 2.011 0 5.421-2.037 5.94-3.545.239-.703.089-1.639-.345-2.12-1.128-1.258-3.248-1.069-3.643.325-.422 1.496-1.131 1.499-2.74.014-2.418-2.234-2.471-6.86-.112-9.553 1.113-1.269 1.104-1.352-.316-2.662-1.523-1.412-2.615-4.201-1.898-4.863.227-.212 1.435-.044 2.677.372 1.772.593 2.468.603 3.198.042 2.208-1.692-.183-3.871-3.723-3.389-1.426.191-2.016 0-2.22-.721-.153-.549-1.399-1.263-2.804-1.609-2.51-.62-2.528-.611-2.528 1.075 0 1.848-1.08 2.199-3.135 1.012-1.671-.965-3.292-.215-3.292 1.518 0 1.62 1.668 2.418 4.659 2.232 2.294-.145 2.379 1.517.201 3.911l-1.565 1.718 1.24 1.739c1.839 2.577 1.683 6.855-.325 8.981l-1.573 1.665-1.034-1.335c-1.434-1.856-3.397-1.733-3.934.248-.355 1.299-.062 1.893 1.602 3.268 1.119.924 2.755 1.68 3.631 1.68 2.173 0 2.088 1.665-.171 3.351l-1.765 1.316 2.73.414c1.503.227 2.731.655 2.731.95 0 1.134.709 4.57 2.501 4.656 1.6.076 2.601-2.3 2.639-3.923z"/><path fill-rule="nonzero" d="M244.745 309.232c0-1.061.277-1.751 1.233-2.309.558-.325 1.341-.52 2.545-.697-.72-.644-1.225-1.263-1.497-1.821-.256-.52-.345-1.025-.262-1.5v-.003c.103-.605.433-1.081.997-1.411.437-.257 1.019-.399 1.736-.399v-.006c.756 0 1.845-.425 2.822-1.006.916-.549 1.663-1.169 1.813-1.609.047-.139.053-.31.027-.479-.021-.129-.053-.23-.089-.271a1.156 1.156 0 00-1.033-.369c-.1.018-.18.05-.227.092a.101.101 0 00-.036.053c-.398 1.411-1.08 2.122-2.246 2.128-.809.003-1.68-.49-2.749-1.476l-.003.003c-1.497-1.385-2.261-3.469-2.288-5.6-.023-2.093.664-4.26 2.076-5.872.286-.325.484-.024.457-.248-.017-.133-.212-.074-.67-.496l-.082-.083a5.364 5.364 0 01-.302-.301l-.073-.085a9.434 9.434 0 01-1.754-2.938c-.481-1.334-.484-2.627.201-3.371l.115-.115c.165-.148.354-.251.552-.307.416-.142.945-.168 1.52-.086.561.077 1.264.245 1.969.481.75.251 1.243.378 1.568.381a.547.547 0 00.357-.13c.168-.13.266-.227.301-.295-.062-.094-.183-.195-.36-.292-.59-.334-1.523-.499-2.645-.346-.924.124-1.618.109-2.176-.073-.844-.275-1.316-.806-1.553-1.642-.023-.088-.088.065-.292-.053a6.022 6.022 0 00-1.514-.588 9.084 9.084 0 01-.821-.241c-.003.738-.147 1.358-.431 1.85-.23.396-.537.7-.921.91a2.51 2.51 0 01-1.216.301c-.735 0-1.615-.293-2.631-.88-.28-.159-.54-.236-.764-.236a.54.54 0 00-.266.053.29.29 0 00-.118.118l-.018.03a.912.912 0 00-.059.363l-.003.056c.012.183.13.336.34.452.443.242 1.154.369 2.117.369.262 0 .507-.006.737-.021.735-.047 1.353.053 1.842.275.647.292 1.075.77 1.282 1.405.171.531.159 1.125-.041 1.759-.257.806-.848 1.754-1.778 2.772l-.817.901.596.835c1.098 1.541 1.603 3.566 1.532 5.506-.071 1.972-.738 3.902-1.975 5.213l-1.576 1.668a1.38 1.38 0 01-2.126-.147l-.998-1.29c-.328-.428-.664-.679-.962-.759a.466.466 0 00-.195-.018.187.187 0 00-.092.039c-.103.079-.194.244-.265.507-.089.319-.113.517-.053.638.135.278.519.643 1.198 1.204a7.664 7.664 0 001.609.998c.487.225.91.363 1.148.363.786 0 1.423.175 1.908.481v-.002a2.16 2.16 0 011 1.44c.104.505.033 1.045-.206 1.589-.234.531-.656 1.101-1.255 1.668.653.118 1.255.274 1.73.44 1.066.368 1.727 1 1.727 1.797 0 .549.21 1.78.694 2.681.183.339.363.593.493.599l.018.003c.192-.012.416-.269.619-.614.334-.567.532-1.29.559-1.895l.002-.041h-.002zm2.754 0h.003-.003zm1.706-.322c-.862.118-1.411.215-1.706.33l-.006.163a7.266 7.266 0 01-.936 3.155c-.673 1.143-1.686 1.981-3.011 1.972l-.127-.003c-1.287-.062-2.185-.921-2.787-2.042-.54-1.004-.85-2.288-.968-3.209a10.188 10.188 0 00-1.615-.363l-2.731-.414a1.377 1.377 0 01-.62-2.468l1.766-1.316c.425-.316.738-.611.944-.868-.628-.012-1.44-.248-2.249-.623a10.353 10.353 0 01-2.202-1.376c-.986-.812-1.583-1.432-1.922-2.12-.414-.841-.408-1.591-.142-2.568.233-.862.676-1.52 1.246-1.96a2.944 2.944 0 011.299-.579 3.188 3.188 0 011.39.071c.845.23 1.701.809 2.421 1.739l.047.062.47-.493c.767-.815 1.183-2.087 1.231-3.427.05-1.373-.287-2.778-1.028-3.812l-1.198-1.685a1.374 1.374 0 01.062-1.781l1.564-1.718c.588-.646.966-1.193 1.137-1.617-.068-.003-.145 0-.23.005-.346.021-.65.033-.912.033-1.429 0-2.59-.245-3.443-.714-1.083-.597-1.685-1.503-1.762-2.693v-.006a3.474 3.474 0 01.396-1.895l.052-.103a3.014 3.014 0 011.182-1.152 3.27 3.27 0 011.582-.395c.673 0 1.408.194 2.131.611.449.26.803.419 1.063.475.006-.077.012-.177.012-.295 0-1.45.015-2.179 1.163-2.669.732-.31 1.52-.124 3.07.257a8.91 8.91 0 012.229.871c.717.41 1.264.936 1.5 1.494a5.19 5.19 0 00.785-.062c1.739-.237 3.294.079 4.36.681.594.337 1.063.774 1.37 1.273.363.602.493 1.272.34 1.969-.154.685-.579 1.349-1.329 1.925-.614.469-1.222.7-2.057.691-.65-.009-1.391-.183-2.409-.523a9.703 9.703 0 00-.951-.266c.018.036.035.077.053.118.248.691.682 1.45 1.199 2.032l.23.239.056.05c.959.886 1.447 1.381 1.544 2.196.106.912-.298 1.441-1.125 2.386-.951 1.083-1.414 2.571-1.396 4.026v.006c.015 1.409.487 2.751 1.405 3.602l-.003.003.003.003c.216.198.39.357.525.475.166-.487.443-.892.798-1.21.445-.399 1-.656 1.597-.762a3.873 3.873 0 011.706.094c.679.192 1.331.57 1.848 1.149.396.437.655 1.048.759 1.683.094.593.059 1.24-.136 1.804-.366 1.068-1.588 2.225-3.008 3.073-1.193.711-2.584 1.257-3.753 1.381.219.219.502.466.848.735l1.93 1.5-.003.003a1.377 1.377 0 01-.655 2.45l-2.893.402zm1.358-12.033l-.097-.027c.026.018.044.027.053.027h.044zm0 0c.068-.003.012-.012-.083-.024l.083.024zm-3.203-15.847l-.003.017c.012-.017.015-.026.009-.023l-.006.006zm-5.299-5.288c-.115-.044-.18-.062-.216-.047-.318.136-.041.062.216.047z"/><path fill-rule="nonzero" d="M280.681 296.797c2.48-.954 7.85-5.388 7.85-6.486 0-.345-1.483-1.934-3.295-3.534-3.811-3.365-7.956-9.033-9.031-12.345-.561-1.728-3.268-4.685-10.893-11.901l-10.147-9.6-2.922.72c-1.609.399-3.572.732-4.361.744-1.363.021-1.337.098.473 1.465l1.91 1.443 2.677-1.452c2.595-1.406 2.687-1.414 3.009-.281.186.662-.219 1.807-.936 2.651-.697.818-1.092 1.745-.88 2.061.21.316-.458.974-1.485 1.467-1.907.909-3.229 3.906-1.724 3.906 1.352 0 4.334-3.59 3.992-4.803-.178-.623-.092-1.264.189-1.423 1.159-.665 1.089 2.155-.092 3.542-.697.818-1.092 1.745-.88 2.061.21.316-.458.974-1.485 1.467-1.892.903-3.229 3.906-1.739 3.906 1.462 0 4.396-3.43 4.033-4.715-.192-.67-.118-1.352.163-1.511.782-.446 1.204 1.78.543 2.869-.355.585-.352 1.382.008 2.014.65 1.145-.008 3.345-1.207 4.029-.513.293-.165.868 1.08 1.786 1.801 1.329 1.837 1.467 1.837 7.325 0 4.897.204 6.161 1.125 7.011 1.033.957 1.124.959 1.124.044 0-1.004 1.801-2.226 3.277-2.226.434 0 3.15 2.247 6.037 4.992 2.902 2.761 5.94 5.113 6.802 5.261.853.151 1.78.307 2.055.351.277.045 1.579-.33 2.893-.835v-.003z"/><path fill-rule="nonzero" d="M280.297 295.471c1.101-.457 2.849-1.677 4.36-2.925 1.376-1.137 2.495-2.117 2.495-2.235 0-.186-.23.035-.596-.357a32.79 32.79 0 00-2.229-2.146c-1.984-1.754-4.045-4.089-5.742-6.41-1.727-2.358-3.106-4.746-3.69-6.547-.219-.673-.948-1.689-2.501-3.386-1.68-1.837-4.242-4.358-8.024-7.936l-7.108-6.728a5.114 5.114 0 01-.142.484c-.127.364-.31.742-.535 1.102.234.206.411.472.535.788.127.322.191.714.195 1.136.006.859-.266 1.996-.809 2.92.159.151.298.331.413.537.165.296.286.656.357 1.039l.009.062c.151.901.039 2.07-.46 2.891a.506.506 0 00-.062.271c0 .121.029.242.091.351.519.916.546 2.156.216 3.263a5.172 5.172 0 01-1.031 1.889c.089.071.192.151.307.233 1.169.862 1.766 1.346 2.117 2.74.275 1.098.284 2.657.284 5.695 0 2.394.047 3.876.194 4.806.027.156.054.295.083.416.257-.292.567-.561.909-.794.842-.573 1.949-.98 2.961-.98.546 0 1.647.684 2.979 1.786 1.104.912 2.527 2.184 4.006 3.59a54.953 54.953 0 004.059 3.518c1.06.821 1.819 1.347 2.025 1.382l2.04.351c.062.012.118-.073.461-.174a21.17 21.17 0 001.597-.537c.077-.039.153-.071.236-.095zm6.117-.803c-1.724 1.426-3.814 2.852-5.205 3.398l-.038.015c-.703.269-1.397.505-1.943.664-.708.204-1.316.305-1.656.248l-.821-.135-1.251-.216c-.653-.112-1.845-.838-3.242-1.919a57.832 57.832 0 01-4.277-3.705 79.913 79.913 0 00-3.864-3.46c-.86-.708-1.114-1.148-1.223-1.148-.463 0-.995.207-1.42.493-.28.192-.478.333-.478.354 0 1.411-.207 2.108-1.603 2.055-.573-.024-1.03-.357-1.754-1.018l-.079-.069c-.694-.64-1.11-1.387-1.335-2.786-.18-1.137-.236-2.734-.236-5.237 0-2.82-.009-4.26-.201-5.028-.118-.469-.44-.72-1.071-1.187-.774-.569-1.293-1.074-1.565-1.526-.67-1.107-.458-1.951.617-2.565v.003l.003-.003c.277-.16.517-.57.655-1.039.136-.452.166-.886.036-1.117l-.033-.059c-.865.945-1.915 1.745-2.81 1.999a2.639 2.639 0 01-.709.106c-.531 0-.965-.162-1.31-.454a1.137 1.137 0 01-.139-.121c-.425-.428-.599-.995-.561-1.63.024-.413.142-.865.34-1.316.2-.455.493-.936.853-1.385a1.906 1.906 0 01-.62-.422l-.006-.006c-.425-.428-.6-.989-.567-1.621.024-.416.145-.871.342-1.325.488-1.116 1.547-2.392 2.814-2.997.195-.091.372-.195.528-.298l.124-.089c-.012-.383.08-.799.26-1.222a6.41 6.41 0 011.001-1.567 3.18 3.18 0 00.452-.715l-3.46 1.872a1.38 1.38 0 01-1.527-.088l-1.91-1.444c-1.133-.856-1.721-1.34-1.907-1.913-.581-1.801.322-1.993 2.247-2.023.307-.005.918-.085 1.659-.212.77-.13 1.63-.307 2.388-.493l2.926-.723v.003c.44-.107.921.003 1.272.336l10.146 9.601c3.841 3.637 6.445 6.202 8.164 8.077 1.847 2.019 2.754 3.347 3.093 4.401.49 1.512 1.724 3.617 3.292 5.76 1.597 2.182 3.516 4.363 5.343 5.975a36.818 36.818 0 012.424 2.329c.827.889 1.337 1.704 1.337 2.235 0 .98-1.565 2.766-3.495 4.357zM251 255.337c-.286.059-.57.112-.841.16l.23.174.611-.334zM249.657 273.115c0-1.58-3.336-3.262-7.328-3.699-3.22-.354-3.273-.334-3.273 1.237 0 1.299.507 1.809 2.73 2.754 3.575 1.52 7.871 1.358 7.871-.292z"/><path fill-rule="nonzero" d="M248.166 272.899c-.201-.221-.661-.513-1.293-.835-1.196-.602-2.861-1.08-4.688-1.281-1.396-.151-2.096-.228-2.214-.183a.641.641 0 00-.121.053h.065c.153-.024.519-.098.519 0 0 .274.033.443.127.54.263.263.818.546 1.765.95 1.48.626 3.097.934 4.402.934.593 0 1.09-.06 1.438-.178zm-.056-3.291c1.786.9 2.908 2.131 2.928 3.471v.071a2.247 2.247 0 01-.141.738l-.042.107c-.304.717-.944 1.219-1.815 1.514-.647.216-1.441.328-2.312.328-1.629 0-3.643-.381-5.479-1.164-1.278-.54-2.087-.986-2.636-1.54-.715-.718-.936-1.456-.936-2.48 0-1.42.041-2.144 1.323-2.628.714-.271 1.65-.18 3.477.021 2.161.236 4.163.821 5.633 1.562zm-8.26 1.045c-.015.009.014.006.065 0h-.065z"/><path fill-rule="nonzero" d="M253.315 272.97c1.629-1.44 2.4-3.155 1.42-3.155-1.125 0-4.116 2.615-4.116 3.601 0 1.541.555 1.446 2.696-.446z"/><path fill-rule="nonzero" d="M256.261 271.406c-.334.741-1.022 1.673-1.94 2.506a1.261 1.261 0 01-.189.168c-1.219 1.069-2.066 1.645-2.745 1.76-1.6.266-2.146-.57-2.146-2.424 0-.903.962-2.202 2.107-3.203 1.105-.965 2.483-1.777 3.387-1.777.377 0 .711.097 1.003.28.555.349.812.88.803 1.541-.003.357-.1.747-.28 1.149zM249.846 268.303c.139-.891-.425-1.485-2.117-2.232-3.652-1.609-8.015-2.353-9.066-1.547-1.934 1.485-.646 3.478 2.483 3.835 1.26.145 2.967.52 3.796.835 2.403.91 4.691.494 4.904-.891z"/><path fill-rule="nonzero" d="M248.488 268.09c0 .006 0 .009 0 0zm-.006-.003l-.006-.005c-.198-.21-.623-.449-1.302-.75-1.721-.759-3.607-1.311-5.184-1.583-1.319-.224-2.285-.289-2.491-.13-.198.151-.316.284-.361.399-.009.02-.012.038-.006.05.039.095.145.21.313.328.402.283 1.031.502 1.857.596.682.077 1.47.216 2.194.375.744.162 1.446.354 1.93.537.44.169.865.281 1.261.343.599.091 1.128.073 1.514-.047.154-.048.251-.086.281-.113zm1.99-1.904c.623.659.844 1.352.752 2.176-.002.109-.02.215-.05.316-.027.136-.065.26-.109.375-.334.874-1.069 1.476-2.055 1.78-.77.236-1.727.289-2.745.13a8.872 8.872 0 01-1.81-.478c-.342-.13-.906-.284-1.541-.423a21.317 21.317 0 00-1.925-.33c-1.293-.148-2.362-.549-3.129-1.093-.611-.43-1.048-.965-1.284-1.555a2.746 2.746 0 01.009-2.099c.224-.555.635-1.084 1.243-1.55.844-.647 2.589-.744 4.625-.396 1.781.301 3.9.924 5.831 1.774 1.01.446 1.715.877 2.188 1.373zm-1.981 1.893l.002-.006-.002.006z"/><path fill-rule="nonzero" d="M249.846 263.532c.197-1.269-.635-1.724-7.431-4.059-5.075-1.742-7.321-.918-5.697 2.087.564 1.045 1.511 1.524 3.637 1.834 1.582.233 3.743.684 4.803 1.006 2.834.856 4.469.555 4.688-.868z"/><path fill-rule="nonzero" d="M248.485 263.32l-.39-.21c-.93-.508-2.787-1.184-6.129-2.332-1.797-.617-3.161-.886-4.035-.821-.16.012-.278.027-.354.047.023.21.141.511.351.904.145.268.342.466.64.617.432.215 1.066.375 1.981.507h.006c.797.116 1.766.293 2.678.485.93.195 1.78.398 2.323.561.576.174 1.072.295 1.485.357.605.094 1.057.091 1.346-.009.051-.015.08-.032.083-.047l.009-.021.006-.038zm.924-2.625c1.738.951 1.992 1.774 1.795 3.044v.006a2.832 2.832 0 01-.057.277 1.22 1.22 0 01-.035.154c-.277.915-.897 1.538-1.839 1.86-.705.239-1.594.28-2.651.115a13.492 13.492 0 01-1.863-.431 26.6 26.6 0 00-2.087-.511 45.183 45.183 0 00-2.515-.451c-1.211-.178-2.111-.417-2.826-.777-.847-.428-1.407-.992-1.827-1.768-.452-.839-.676-1.597-.682-2.262-.008-.847.301-1.526.913-2.028.501-.413 1.174-.652 2.001-.714 1.237-.092 2.973.221 5.125.962 3.457 1.187 5.414 1.904 6.548 2.524z"/><path fill-rule="nonzero" d="M253.25 259.066c1.027-1.016 1.865-2.211 1.865-2.66 0-1.456-4.05 1.119-4.567 2.902-.617 2.14.387 2.048 2.702-.242z"/><path fill-rule="nonzero" d="M255.694 258.31a13.365 13.365 0 01-1.396 1.653l-.077.083c-1.069 1.057-1.949 1.724-2.607 1.996-.516.212-.998.241-1.437.094-.609-.21-.99-.65-1.134-1.323-.101-.472-.042-1.104.186-1.889.398-1.37 2.172-2.994 3.607-3.761a5.159 5.159 0 011.24-.493c.65-.145 1.243-.071 1.721.286.446.334.697.809.697 1.45 0 .508-.307 1.198-.8 1.904z"/><path fill-rule="nonzero" d="M249.846 258.764c.224-1.446-2.241-2.754-7.091-3.758-3.561-.738-5.128-.318-4.863 1.293.145.883 1.332 1.527 4.694 2.548 5.379 1.639 6.997 1.621 7.26-.083z"/><path fill-rule="nonzero" d="M248.485 258.537c-.03-.091-.346-.292-.924-.599-1.084-.576-2.79-1.11-5.081-1.585-1.538-.316-2.601-.405-3.203-.26.05.026.18.094.413.221.647.352 1.704.735 3.295 1.219 2.554.78 4.18 1.164 5.14 1.152.248-.003.345-.047.357-.13l.003-.018zm.36-3.035c1.694.898 2.503 2.008 2.379 3.307l-.002.065c-.003.044-.01.085-.018.13-.254 1.6-1.099 2.406-3.059 2.429-1.26.015-3.135-.41-5.96-1.269-1.771-.541-2.988-.989-3.809-1.435-1.156-.629-1.697-1.323-1.842-2.208-.268-1.627.387-2.648 2.005-3.079 1.009-.269 2.501-.195 4.49.218 2.56.529 4.511 1.152 5.816 1.842z"/><path fill-rule="nonzero" d="M254.59 252.031c6.214-2.701 6.751-9.506.891-11.295-2.432-.741-3.985-.343-4.918 1.266-.712 1.231-.236 3.472.741 3.472.331 0 .599.413.599.921 0 2.362-9.488 3.433-13.379 1.509-1.366-.677-1.963-2.43-.826-2.43.85 0 1.437-1.789 1.003-3.055-.59-1.722-2.37-2.318-4.953-1.66-5.825 1.485-5.662 8.163.271 10.997 4.862 2.326 15.523 2.468 20.571.275z"/><path fill-rule="nonzero" d="M254.052 250.767c1.583-.691 2.725-1.671 3.407-2.748.502-.786.753-1.618.747-2.406a3.303 3.303 0 00-.726-2.055c-.514-.643-1.311-1.175-2.397-1.506-.972-.298-1.724-.378-2.282-.233-.428.109-.771.402-1.045.874-.107.183-.154.458-.154.75 0 .263.039.508.109.696.482.113.883.417 1.169.857.248.381.402.876.402 1.399 0 .354-.086.694-.245 1.021-.508 1.028-1.88 1.79-3.649 2.247-1.517.393-3.395.614-5.234.614-2.317 0-4.644-.351-6.241-1.139-.933-.464-1.632-1.276-1.954-2.023a2.687 2.687 0 01-.233-1.107c.006-.534.192-1.009.572-1.375a1.87 1.87 0 011.028-.511c.091-.201.145-.475.145-.765 0-.177-.024-.348-.072-.49a1.334 1.334 0 00-.865-.868c-.584-.195-1.414-.168-2.447.095-1.104.283-1.916.776-2.447 1.393a3.215 3.215 0 00-.786 1.951c-.041.759.163 1.565.606 2.333.605 1.054 1.656 2.034 3.15 2.748 2.249 1.075 5.916 1.644 9.641 1.695 3.732.05 7.452-.426 9.796-1.444l.005-.003zm5.725-1.272c-.942 1.482-2.453 2.816-4.511 3.737a1.371 1.371 0 01-.26.115c-2.704 1.134-6.775 1.668-10.787 1.615-4.086-.053-8.181-.717-10.793-1.966-2.025-.965-3.481-2.347-4.349-3.855-.714-1.241-1.039-2.569-.971-3.841a5.958 5.958 0 011.452-3.614c.889-1.03 2.176-1.836 3.85-2.264 1.55-.395 2.902-.398 4-.03 1.264.426 2.155 1.294 2.598 2.581.154.446.222.921.222 1.384 0 .662-.145 1.335-.39 1.887-.233.519-.57.959-.986 1.246.083.067.177.129.28.179 1.187.588 3.073.848 5.022.848 1.636 0 3.265-.183 4.543-.517.632-.162 1.146-.331 1.476-.499-.463-.307-.814-.803-1.036-1.387a4.846 4.846 0 01-.295-1.671c0-.732.165-1.497.531-2.129.659-1.136 1.559-1.851 2.749-2.157 1.06-.272 2.3-.181 3.758.265 1.659.505 2.908 1.361 3.755 2.424a6.015 6.015 0 011.32 3.755c.009 1.308-.387 2.654-1.178 3.894z"/><path fill-rule="nonzero" d="M250.725 246.796c.36-.333.204-.844-.401-1.307-1.32-1.013-1.249-2.519.201-4.245 1.086-1.293 1.222-3.233 1.597-22.788.647-33.702 3.215-59.052 6.601-65.133 1.346-2.421 1.157-2.43-2.327-.118-4.484 2.979-7.899 6.857-10.928 12.408-5.713 10.483-7.7 24.585-7.7 54.688 0 17.093.119 19.331 1.116 20.937.951 1.526 1.001 2.09.334 3.719-.431 1.057-.626 2.067-.434 2.244 1.275 1.178 10.569.865 11.941-.401v-.004z"/><path fill-rule="nonzero" d="M251.897 247.546a1.134 1.134 0 01-.109.127 1.001 1.001 0 01-.13.139c-.935.862-3.967 1.382-6.896 1.479-2.958.101-5.999-.233-6.911-1.078l.003-.002-.003-.003c-.472-.437-.605-1.193-.437-2.058a9.533 9.533 0 01.532-1.709c.251-.608.366-.986.342-1.264-.023-.269-.209-.632-.573-1.213-.622-1.001-.965-2.12-1.136-5.317-.16-2.982-.189-7.82-.189-16.346 0-15.1.502-26.209 1.721-34.889 1.237-8.773 3.212-15.067 6.149-20.455 1.571-2.878 3.236-5.319 5.09-7.425a31.616 31.616 0 016.288-5.476c1.992-1.322 3.093-1.978 3.802-1.942 2.232.115 1.875 1.381.484 3.879-1.6 2.872-3.035 10.545-4.159 21.672-1.146 11.286-1.946 26.011-2.267 42.812-.189 9.842-.319 15.245-.532 18.312-.245 3.48-.652 4.463-1.387 5.34l-.178.219c-.419.549-.634 1.009-.643 1.369-.006.219.106.432.34.626l-.003.003.065.05c.176.136.333.278.466.42l-.003.003c.336.369.552.767.635 1.172l-.006.003a1.868 1.868 0 01-.355 1.552zm-2.937-1.437c-.655-.697-.974-1.524-.951-2.456.024-.954.426-1.958 1.205-2.973l.035-.045c.086-.112.157-.203.219-.274.351-.419.558-1.054.75-3.755.218-3.115.345-8.461.531-18.174.322-16.898 1.128-31.7 2.276-43.036.965-9.53 2.194-16.689 3.605-20.683a28.745 28.745 0 00-5.211 4.641c-1.73 1.966-3.286 4.242-4.744 6.917-2.775 5.092-4.649 11.094-5.836 19.516-1.199 8.518-1.692 19.511-1.692 34.514 0 8.567.03 13.394.18 16.204.139 2.598.355 3.401.729 4.007.585.944.898 1.626.969 2.429.07.791-.119 1.511-.535 2.533-.13.313-.23.623-.304.897.854.186 2.637.233 4.488.171 1.676-.055 3.312-.206 4.286-.433zM302.94 214.66c.195-.293-.236-1.76-.956-3.266-1.122-2.347-1.577-2.736-3.177-2.736-5.013 0-13.069-2.185-21.376-5.798-4.798-2.088-6.454-2.566-7.03-2.034-1.467 1.355.972 4.576 4.751 6.267 3.35 1.503 12.717 3.345 16.992 3.345 2.48 0 2.539.109 1.128 2.099l-1.04 1.464 2.805.071c1.544.038 3.672.275 4.733.523 2.754.649 2.78.649 3.17.065z"/><path fill-rule="nonzero" d="M304.124 213.098c.189.64.257 1.228.186 1.697a1.404 1.404 0 01-.228.629c-.472.708-.729 1.063-1.868 1.039-.558-.012-1.296-.183-2.755-.525-.481-.115-1.222-.228-2.025-.316a30.213 30.213 0 00-2.429-.177l-2.755-.068a1.39 1.39 0 01-.815-.254 1.378 1.378 0 01-.321-1.919l.983-1.384c-2.226-.009-5.71-.479-9.061-1.137-3.377-.667-6.668-1.538-8.445-2.335-1.769-.791-3.28-1.893-4.32-3.017-.646-.7-1.13-1.429-1.405-2.129-.345-.88-.378-1.742-.035-2.506.148-.325.357-.62.638-.877.667-.62 1.623-.747 3.247-.278 1.151.334 2.816.993 5.263 2.058 4.077 1.772 8.104 3.198 11.739 4.183 3.562.966 6.707 1.497 9.089 1.497 1.139 0 1.898.165 2.669.827.622.537 1.101 1.346 1.747 2.695.393.821.709 1.641.901 2.297zm-2.737.458a14.162 14.162 0 00-.643-1.568c-.476-.998-.786-1.559-1.069-1.801-.139-.121-.404-.151-.868-.151-1.095 0-2.326-.097-3.661-.286.086.097.163.213.234.34.434.809.171 1.523-.544 2.6l.234.006c.832.021 1.792.092 2.665.189.912.101 1.769.234 2.347.369.544.127.971.227 1.305.302zm-10.008-4.514a68.119 68.119 0 01-2.385-.597c-3.725-1.012-7.882-2.486-12.113-4.325-2.35-1.021-3.911-1.644-4.93-1.939-.537-.154-.525-.422-.611-.351-.014.053.021.186.092.372.15.377.448.811.865 1.266.809.874 2.001 1.739 3.415 2.371 1.571.702 4.641 1.505 7.853 2.137 2.84.561 5.757.977 7.814 1.066zm1.574 2.352c-.112-.212-.136-.062-.251.118.224.024.375.113.251-.118zM332.219 229.848c0-.873-2.621-3.232-5.278-4.753-2.085-1.195-2.43-1.231-2.436-.256-.006 1.479-1.355 5.195-1.883 5.195-.298 0-.741-.726-.98-1.615-.242-.888-1.255-2.636-2.25-3.888l-1.81-2.273-1.407 2.108c-1.314 1.963-3.588 3.885-4.597 3.885-.242 0-.289-1.033-.106-2.297.2-1.372.047-2.462-.381-2.707-.396-.224-.718-.147-.718.175 0 .74-3.158 4.236-3.826 4.236-.277 0-.661-1.001-.859-2.226a222.13 222.13 0 00-.737-4.305c-.213-1.142.238-.368.997 1.722l1.385 3.802 1.517-2.317c.835-1.273 1.518-2.666 1.52-3.094 0-.428.284-.617.626-.419.346.195.824 1.726 1.063 3.4l.437 3.047 1.671-1.786c.918-.98 1.993-2.297 2.391-2.922.706-1.114.747-1.114 2.155.052.791.653 2.005 2.214 2.698 3.472.694 1.255 1.353 2.191 1.468 2.076.112-.113.366-1.409.564-2.876.197-1.47.375-2.727.392-2.793.098-.365 5.028 2.764 6.852 4.346 1.172 1.018 2.288 1.709 2.474 1.535.189-.174.345-1.677.345-3.339 0-2.574-.28-3.262-1.895-4.67-1.854-1.618-1.907-1.626-2.592-.443-.888 1.535-1.939 1.559-1.939.041 0-1.107-3.507-5.363-4.417-5.363-.239 0-.977.932-1.641 2.075-.667 1.145-1.385 2.078-1.594 2.078-.898-.006-5.84-5.384-5.84-6.353 0-.773.334-.575 1.202.715.658.98 1.972 2.441 2.922 3.25 1.922 1.635 2.619 1.237 3.363-1.916.209-.897.579-1.633.815-1.633.82 0 5.125 4.461 5.73 5.937l.608 1.485.461-1.632c.56-1.996 1.18-2.07 2.081-.248.375.761 2.229 2.344 4.118 3.516l3.436 2.131.691-2.143c.378-1.181.883-1.86 1.116-1.509.351.526-.543 4.08-1.216 4.845-.101.115-1.216-.52-2.474-1.409l-2.291-1.614-.012 2.893c-.006 1.588-.183 3.489-.395 4.224-.417 1.438-1.521 1.843-1.521.558h-.003z"/><path fill-rule="nonzero" d="M330.841 229.848c0-.029-.473-.469-1.184-1.11a20.518 20.518 0 00-3.401-2.447l-.511-.292a16.428 16.428 0 01-.693 2.459c-.582 1.612-1.524 2.955-2.43 2.955-.664 0-1.261-.437-1.686-1.137l-.053-.094a5.98 5.98 0 01-.573-1.403c-.091-.333-.354-.876-.702-1.478a16.436 16.436 0 00-1.293-1.913l-.635-.797-.363.54a14.867 14.867 0 01-2.666 2.964c-1.092.924-2.235 1.535-3.073 1.535-.109 0-.213-.012-.313-.036l-.015-.003c-.64-.135-1.03-.599-1.184-1.31a4.62 4.62 0 01-.085-.942c0-.275.017-.596.05-.945-.098.116-.201.23-.301.346-1.093 1.204-2.448 2.296-3.183 2.296-.764 0-1.375-.59-1.741-1.54a9.582 9.582 0 01-.476-1.849 155.11 155.11 0 00-.363-2.166 180.34 180.34 0 00-.369-2.105c-.074-.402-.091-.718-.056-.942.239-1.494.983-1.795 2.194-.962.088.062.168.129.236.203.109.115.213.251.304.41.215.372.558 1.169.965 2.294l.443 1.216.012-.017c.401-.608.75-1.219.992-1.712l.307-.626h-.003c0-.378.091-.721.257-1.007a1.41 1.41 0 01.1-.151 1.695 1.695 0 011.391-.714v-.006c.306 0 .625.083.935.26.49.281.915 1.001 1.208 1.934.212.682.407 1.561.54 2.474l.027.197c.345-.384.708-.805 1.039-1.213.404-.49.738-.927.903-1.193.632-.991.986-1.488 2.014-1.464.737.018 1.239.411 2.187 1.193.472.392 1.048 1.024 1.594 1.724.331.428.661.894.957 1.355l.198-1.453c.079-.569.141-.959.162-1.042.041-.15.103-.289.189-.413.481-.729 1.245-.806 2.19-.369.304.142.709.357 1.169.626 1.683.98 4.287 2.737 5.535 3.82.175.151.346.292.511.425.018-.366.027-.768.027-1.19 0-1.11-.047-1.786-.239-2.255-.175-.431-.54-.824-1.178-1.382-.266-.23-.476-.416-.635-.564-.434.679-.927 1.146-1.405 1.391a2.057 2.057 0 01-1.29.213 1.86 1.86 0 01-1.216-.786c-.29-.413-.461-.98-.461-1.689 0-.23-.729-1.227-1.55-2.225-.49-.597-.953-1.149-1.228-1.471-.219.299-.466.679-.711 1.099a16.163 16.163 0 01-1.063 1.611c-.546.712-1.166 1.152-1.724 1.149-.853-.006-2.71-1.562-4.266-3.256-1.538-1.671-2.947-3.625-2.943-4.47h-.006c0-1.998.711-2.574 2.353-1.6l.003-.003c.375.225.814.732 1.366 1.553.284.425.735.98 1.234 1.532.508.564 1.028 1.089 1.435 1.438.469.398.443.75.555.685.118-.065.298-.682.576-1.869a6.92 6.92 0 01.51-1.452h-.003c.381-.771.963-1.246 1.651-1.246.797 0 2.462 1.31 3.938 2.84a27.41 27.41 0 012.137 2.474c.39-.644.874-.998 1.476-1.072.998-.118 1.825.573 2.563 2.069.103.21.537.641 1.151 1.166.703.6 1.577 1.244 2.456 1.79l1.943 1.204.15-.469c.233-.718.523-1.317.806-1.704a2.23 2.23 0 01.638-.614c.531-.321 1.075-.342 1.612-.023a1.592 1.592 0 01.514.49c.401.602.313 2.063-.03 3.43-.31 1.228-.812 2.539-1.296 3.088-.543.617-1.467.555-2.515-.041a23.109 23.109 0 01-1.786-1.149l-.133-.094v.248a30.008 30.008 0 01-.127 2.559c-.08.848-.192 1.597-.325 2.046-.271.942-.797 1.639-1.319 1.984-.042.026-.083.05-.127.074a1.93 1.93 0 01-.927.262 1.672 1.672 0 01-1.267-.522l-.024-.027c-.336-.357-.548-.876-.557-1.552v-.045zm-1.169-9.382a.069.069 0 00-.027-.017l-.044-.009-.003.012.074.014zm-6.994-4.475l-.015-.015c-.13 0-.083.006.015.015zM315.085 206.801c-4.083-3.327-4.703-4.089-4.611-5.665l.094-1.677.266 1.621c.157.947 1.246 2.364 2.616 3.409l2.347 1.789 1.443-1.629c.794-.895 1.452-1.963 1.467-2.371.033-1.063.228-.974 2.994 1.367 2.456 2.081 2.494 2.09 2.86.741.204-.75.13-2.164-.159-3.141-.803-2.69-.646-3.094.57-1.473.605.809 1.579 1.948 2.167 2.536 1.015 1.024 1.077 1.009 1.458-.295.219-.753.398-2.126.405-3.056l.008-1.689 2.214 2.451c2.07 2.287 2.262 2.373 2.893 1.281.372-.641.68-2.188.685-3.433.009-1.609.181-2.014.603-1.403.699 1.025.212 3.811-1.081 6.185l-.93 1.703-1.219-1.85c-1.559-2.368-2.075-2.333-3.076.224-.945 2.418-1.562 2.601-2.483.744-.596-1.202-.708-1.054-1.131 1.47l-.472 2.807-2.816-2.134-2.82-2.134-1.266 1.405c-.697.773-1.275 1.739-1.287 2.146-.027.886-.703.912-1.736.071h-.003z"/><path fill-rule="nonzero" d="M314.152 207.813c-2.075-1.691-3.285-2.751-4.006-3.634-.927-1.136-1.113-1.977-1.048-3.117l.098-1.68a1.376 1.376 0 012.736-.109l.26 1.585c.041.245.257.623.587 1.054a8.248 8.248 0 001.506 1.482l1.331 1.015.594-.67c.345-.389.661-.811.886-1.18.147-.237.235-.284.235-.322.06-1.91.346-2.748 2.419-1.801.557.254 1.363.909 2.84 2.158l.711.602-.009-.227a5.72 5.72 0 00-.213-1.331c-.489-1.642-.643-2.699-.434-3.242.718-1.848 1.825-1.579 3.425.552.274.363.652.827 1.036 1.278l.369.426.042-.278c.065-.508.109-1.022.109-1.423l.008-1.689a1.378 1.378 0 011.382-1.369c.416.003.788.189 1.039.484l2.188 2.421c.36.398.652.717.883.962.041-.154.082-.331.118-.519a9.203 9.203 0 00.186-1.677c.003-.995.082-1.671.251-2.07.779-1.818 1.706-1.792 2.86-.106.561.821.682 2.14.428 3.599-.218 1.251-.714 2.692-1.437 4.02l-.93 1.704a1.373 1.373 0 01-2.383.053l-1.189-1.807c-.482-.732-.337-1.127-.505-1.116-.224.018.144.349-.145 1.087-.635 1.626-1.29 2.539-2.137 2.792-.567.169-1.063.104-1.512-.188l-.36 2.14a1.376 1.376 0 01-2.187.873l-4.629-3.504-.42.464a6.66 6.66 0 00-.743.995c-.122.201-.192.233-.195.268a2.37 2.37 0 01-.213.963 1.76 1.76 0 01-1.134.983c-.395.118-.82.103-1.266-.044-.392-.127-.827-.375-1.287-.738a1.092 1.092 0 01-.145-.119zm13.639-6.155l-.044.045.171-.033.009-.024-.136.012zm-.03 0c-.067.036-.094.056-.014.045l.044-.045h-.03zM351.417 194.408c-1.485-1.308-2.509-2.554-2.276-2.769.236-.219.502-.281.59-.139.086.142 1.302 1.388 2.699 2.769 3.218 3.185 2.556 3.274-1.013.139z"/><path fill-rule="nonzero" d="M350.422 195.361c-.525-.463-1-.932-1.396-1.358-.39-.422-.7-.808-.897-1.121-.514-.801-.553-1.544-.027-2.144l.109-.112c.1-.095.218-.183.351-.266l-.003-.002c.266-.169.555-.272.83-.302a1.51 1.51 0 011.317.475l.002-.002c.075.074.133.156.186.236l.012.02c.053.057.284.278.671.677.487.499 1.133 1.151 1.824 1.833 1.163 1.151 1.872 1.954 2.155 2.385.59.907.478 1.636-.295 2.158l-.003.003.003.003c-.505.339-1.104.325-1.772-.062-.543-.31-1.547-1.08-2.937-2.3a1.622 1.622 0 01-.13-.121zM303.023 189.528c-1.352-1.783-1.258-2.967.389-4.901 1.19-1.396 1.733-1.585 3.808-1.328 1.335.165 4.201 1.314 6.374 2.553 2.506 1.429 5.101 2.389 7.112 2.628 1.739.204 3.165.283 3.165.171 0-.112-.724-1.26-1.606-2.554-2.099-3.07-2.029-3.4.339-1.558 2.43 1.886 5.335 2.438 11.826 2.246l3.174-.094-1.842-1.774c-2.571-2.483-1.78-2.705 1.063-.299 2.665 2.259 2.497 2.418-3.115 2.964-2.382.231-4.948.062-7.079-.466-3.188-.791-3.309-.779-2.707.266.348.599.912 1.092 1.251 1.092.343 0 .62.304.62.676 0 1.146-6.884.139-10.176-1.488-7.519-3.714-8.464-4.035-10.252-3.486-.995.307-1.993 1.204-2.335 2.102-1.146 2.996 3.205 5.322 5.003 2.674.52-.767.399-1.29-.516-2.226-1.252-1.278-1.137-1.461.555-.862 1.201.425 1.364 3.239.245 4.272-1.278 1.181-4.195.847-5.296-.608z"/><path fill-rule="nonzero" d="M301.898 190.322c-.868-1.154-1.267-2.173-1.178-3.295.082-1.074.626-2.09 1.647-3.288.756-.892 1.34-1.408 2.164-1.695.791-.277 1.612-.269 2.858-.115.776.097 1.951.461 3.215.966a31.232 31.232 0 013.669 1.759 23.888 23.888 0 003.537 1.665c1.113.41 2.158.685 3.058.791l.455.053-.198-.289c-1.272-1.863-1.857-3.026-1.712-3.687.396-1.825 1.7-1.553 4.036.262 1.042.809 2.196 1.338 3.799 1.642 1.727.328 3.962.413 7.064.325-.682-.703-1.101-1.24-1.278-1.589l-.047-.103c-.351-.764-.207-1.39.401-1.86l-.003-.003c.458-.357 1.025-.41 1.668-.145.532.219 1.456.833 2.66 1.852 2.111 1.789 3.023 2.822 1.606 4.171-.72.685-2.356.906-5.479 1.21a23.91 23.91 0 01-3.849.059 22.334 22.334 0 01-2.882-.375c.044.166.068.34.068.517 0 .18-.029.36-.091.534-.293.854-1.187 1.267-2.445 1.323-.762.035-1.751-.036-2.819-.189-2.267-.322-5.016-1.033-6.811-1.922-2.022-.998-3.56-1.748-4.756-2.297.077.26.13.529.16.803a5.272 5.272 0 01-.245 2.306 3.577 3.577 0 01-.918 1.435c-.083.079-.172.15-.26.218l-.003.003.003.003c-.933.709-2.259.965-3.525.824-1.246-.139-2.495-.673-3.304-1.547a3.978 3.978 0 01-.239-.286l-.026-.036zm20.207-6.554a.099.099 0 000 .042c.083-.405.115-.573 0-.042zm-16.794 1.937a2.894 2.894 0 00-.437.325c-.26.233-.464.496-.555.738-.186.484-.083.927.171 1.257.156.204.366.375.602.499.233.124.487.198.738.21.393.015.791-.145 1.069-.552.032-.051.091.103.074.026-.015-.067-.16-.236-.434-.516-.753-.771-1.178-1.408-1.228-1.987zm2.541.629c-.141.218-.088.159.036.012.074-.16.097-.219-.036-.012z"/><path fill-rule="nonzero" d="M332.636 182.13c-.939-.868-.201-1.081 4.011-1.157 5.217-.095 8.382-.942 12.119-3.245 2.994-1.845 3.805-1.482.962.431-2.592 1.745-6.633 3.085-10.536 3.495-1.892.198-4.044.473-4.788.612-.744.138-1.538.076-1.768-.136z"/><path fill-rule="nonzero" d="M331.688 183.128c-1.648-1.529-1.73-2.507.641-3.192.726-.212 2.066-.298 4.298-.339 2.482-.044 4.472-.266 6.279-.75 1.78-.478 3.392-1.213 5.137-2.288 1.304-.803 2.297-1.246 2.84-1.364.655-.144 1.192.003 1.585.422.537.576.576 1.246.059 1.973-.277.386-.942.977-2.031 1.712-1.397.939-3.171 1.765-5.113 2.409a29.048 29.048 0 01-6.052 1.311c-.983.103-1.981.221-2.793.324-.832.106-1.529.207-1.886.272a5.703 5.703 0 01-1.426.085c-.617-.047-1.172-.239-1.52-.561l-.018-.014z"/><path fill="#FFBE29" fill-rule="nonzero" d="M287.161 333.902l2.164-1.219.924 1.222c1.234 1.627 4.643 1.606 6.908-.038l1.73-1.258 1.449 1.258c1.907 1.653 5.465 1.656 7.738.006 1.591-1.157 1.812-1.178 2.863-.301.626.525 2.465 1.121 4.086 1.328 2.92.369 2.964.349 4.673-2.152 1.429-2.093 1.653-2.94 1.311-4.971-.224-1.346-.469-3.513-.54-4.815-.13-2.356-.115-2.371 3.404-3.567 1.942-.661 4.192-1.546 4.997-1.968 1.409-.735 5.282-5.179 5.282-6.055 0-.234-1.514-.588-3.363-.792-7.359-.805-8.608-4.661-3.823-11.823 7.803-11.681 12.512-23.056 12.544-30.303.015-3.239.204-4.328.629-3.623 1.745 2.878-1.379 14.95-6.111 23.617l-1.904 3.49 1.819-.408c.997-.224 6.875-2.645 13.06-5.378 16.927-7.481 22.743-8.945 33.698-8.497 9.179.378 13.087 2.129 19.567 8.759 3.434 3.513 6.74 6.026 12.789 9.722 12.889 7.87 13.426 8.552 14.04 17.81.62 9.379.31 9.887-6.961 11.454-6.214 1.341-10.108 4.166-11.153 8.095-.558 2.096.614 2.155 3.749.192l2.297-1.441 1.018 1.441c1.344 1.892 4.198 1.901 6.566.018l1.789-1.423 1.83 1.423c2.843 2.208 6.622 1.674 7.691-1.093.203-.531.752-.36 1.859.579 2.079 1.762 7.401 2.518 7.974 1.134.221-.529-.195-1.834-.924-2.899-3.097-4.532-4.068-6.693-4.106-9.161-.056-3.43.991-5.087 4.992-7.876 4.856-3.389 6.359-7.762 2.663-7.762-2.279 0-4.579-1.966-6.046-5.171-2.982-6.519-2.398-13.826 2.078-25.979 4.543-12.346 5.048-14.622 5.066-22.88.014-6.674-.157-7.829-1.715-11.489-.951-2.238-2.882-5.571-4.29-7.404l-2.562-3.336 3.288-2.657c10.041-8.115 7.986-21.4-4.1-26.516-3.696-1.568-4.62-1.704-11.1-1.662-3.888.026-9.816.525-13.173 1.11-3.424.596-9.216 1.074-13.193 1.089-6.312.024-7.383-.127-9.819-1.39-2.535-1.317-2.97-1.943-3.468-4.989-.101-.626-.549-1.252-.995-1.388-.865-.266-4.851 3.108-5.438 4.602-.292.738-.529.688-1.382-.295-.564-.652-1.355-2.155-1.753-3.336-1.007-2.969.227-5.196 3.805-6.863l2.778-1.296-1.638-.992c-3.378-2.046-9.122-.647-11.201 2.727-.587.957-1.228 1.739-1.423 1.742-.194 0-1.314-.909-2.483-2.025-4.36-4.157-2.86-10.312 2.973-12.189 3.112-1.001 5.863-.237 6.436 1.785.877 3.091 3.593-.97 3.106-4.637-.322-2.439-.275-2.524 1.455-2.524 2.406 0 7.525 3.079 9.107 5.479 1.84 2.787 1.707 7.176-.319 10.448l-1.588 2.568 2.079-.405c3.049-.596 6.01-2.444 7.507-4.682 1.585-2.37 1.754-6.982.351-9.467-1.361-2.412-1.204-2.796.806-1.981 3.422 1.388 5.252 2.914 6.625 5.535 1.237 2.359 1.305 2.943.635 5.4-.411 1.514-1.332 3.507-2.04 4.431-1.105 1.432-1.143 1.674-.263 1.674 1.641 0 5.063-1.515 6.282-2.778.614-.638 1.508-2.211 1.99-3.493l.873-2.332 1.004 1.777c1.42 2.516 4.18 4.777 7.543 6.185 3.619 1.511 5.128 1.597 3.236.18-1.279-.953-3.629-7.684-2.917-8.343.419-.389 5.334 3.301 10.943 8.213 5.308 4.65 8.641 6.173 13.515 6.173 6.226 0 9.852-5.29 7.053-10.291-1.63-2.914-5.267-3.318-7.392-.824-.977 1.149-1.243 2.064-.957 3.268.348 1.474.213 1.671-1.166 1.671-1.81 0-5.376-2.258-11.711-7.419-9.662-7.864-21.403-14.533-29.878-16.968-5.441-1.562-17.061-2.173-22.59-1.184-5.987 1.069-13.066 4.411-16.922 7.986-6.834 6.34-6.943 14.775-.289 22.456l1.907 2.203-1.29 1.954c-1.878 2.846-1.718 6.675.398 9.494.93 1.243 1.869 2.259 2.087 2.259.216-.004.455-.801.529-1.775.186-2.468 1.272-4.121 3.135-4.776 1.677-.591 2.763-.31 10.445 2.68 8.083 3.147 21.376 3.366 35.508.579 6.929-1.367 15.1-1.284 18.696.183 6.586 2.695 8.116 9.701 3.271 15.02-2.096 2.303-4.118 3.239-10.908 5.057-5.166 1.385-6.389 1.476-18.132 1.361-10.032-.097-13.636.092-17.734.924-4.446.906-7.18.998-20.24.676l-15.097-.372 1.674 1.355c.921.745 2.22 1.66 2.89 2.035 1.14.637 1.101.723-.591 1.334-.994.36-3.202.655-4.906.655h-3.1l-.416 2.569c-.23 1.414-.212 3.064.039 3.666.369.889.233 1.019-.73.676-.652-.23-2.465-.685-4.032-1.01-1.565-.324-3.676-.985-4.685-1.467-1.698-.812-1.887-.791-2.512.29-.561.965-5.807 4.776-6.578 4.776-.124 0-.286-.735-.357-1.632-.071-.898-.83-3.236-1.683-5.196-.853-1.96-1.745-4.098-1.981-4.75-.354-.986-.516-1.036-.945-.295-.283.49-.699 1.824-.921 2.966-.224 1.143-1.015 3-1.759 4.128l-1.349 2.049-.865-1.754c-.924-1.878-2.459-3.829-3.017-3.829-.186 0-.508.602-.712 1.337-.422 1.535-4.065 5.789-4.956 5.789-.328 0-.597-1.204-.597-2.671 0-1.47-.289-2.672-.64-2.672-.355 0-.644.378-.644.844 0 1.131-3.111 4.499-4.153 4.499-.458 0-1.19.399-1.63.889-1.146 1.278-2.084 1.098-1.603-.304.227-.658.08-2.196-.325-3.416a1308.93 1308.93 0 01-.959-2.884c-.154-.46-1.27-.339-3.629.398-3.814 1.193-5.092.984-3.132-.516.718-.546 1.81-2.444 2.424-4.216.617-1.771 1.526-3.344 2.019-3.495.694-.21.655.05-.159 1.128-.585.77-1.063 1.807-1.066 2.306 0 .498-.44 1.682-.974 2.627-.534.948-.871 1.815-.747 1.931.124.111 1.576-.426 3.224-1.196l2.999-1.402.012 1.254c.009.691.369 2.513.803 4.047l.791 2.791 2.043-.916c2.087-.936 4.062-4.271 4.062-6.857 0-1.279.75-1.081 1.057.277.092.398.564 1.895 1.048 3.327l.883 2.601 1.399-1.645c.767-.903 1.733-2.674 2.14-3.935.712-2.19 1.828-3.132 1.828-1.541 0 1.146 3.206 5.258 3.823 4.904.298-.172.894-1.712 1.322-3.431.892-3.566 2.33-5.992 3.245-5.47.342.195.478.576.298.847-.18.269.558 2.589 1.641 5.155 1.081 2.565 2.17 5.148 2.415 5.739.396.95.753.811 3.073-1.187 1.447-1.246 2.757-2.639 2.914-3.097.239-.694.561-.667 1.913.151 1.889 1.142 8.239 2.984 8.73 2.533.183-.171.372-1.798.419-3.617l.082-3.306 1.828.369c1.003.203 3.117.189 4.694-.03l2.866-.395-2.556-1.713c-1.406-.938-2.825-2.157-3.156-2.703-.354-.582-1.606-1.078-3.02-1.196-3.829-.316-10.613-4.03-10.613-5.807 0-.334.939.233 2.087 1.26 2.548 2.279 6.087 3.708 9.178 3.708h2.315l-1.432-1.857c-.821-1.065-1.559-3.087-1.733-4.753-.274-2.654-.561-3.076-3.401-5-1.706-1.158-3.82-2.894-4.697-3.856l-1.594-1.75-.812 2.078c-.445 1.142-.995 2.078-1.213 2.078-.221 0-1.081-.667-1.913-1.485-.83-.815-1.674-1.479-1.877-1.476-.204.003-.939 1.104-1.633 2.445l-1.267 2.435-.974-1.405c-.537-.774-1.807-2.14-2.822-3.038-1.013-.897-1.547-1.632-1.184-1.632s1.612.935 2.781 2.078l2.123 2.081.862-1.523c.513-.904.705-2.294.472-3.416-.337-1.635-.289-1.73.351-.705.411.655 1.651 1.907 2.76 2.784l2.017 1.594 1.39-2.486c1.385-2.474 1.394-2.477 2.023-1.001.841 1.975 6.937 6.849 12.127 9.698.797.44.46-1.069-1.016-4.541-.392-.92-.711-2.577-.711-3.684 0-1.641-.484-2.371-2.636-3.967-3.106-2.306-4.11-3.947-4.697-7.667-.236-1.506-.78-3.182-1.208-3.726-.634-.803-.738-.354-.569 2.445.115 1.886-.136 4.23-.558 5.207l-.765 1.783-.593-1.485c-.325-.817-1.766-2.235-3.203-3.156-1.435-.918-2.442-1.824-2.238-2.013.203-.189 1.68.65 3.283 1.863 2.438 1.845 2.975 2.046 3.312 1.231.395-.954 0-5.113-.768-8.018-.381-1.449-.348-1.444 1.485.345 1.352 1.32 2.102 2.896 2.681 5.642.738 3.489 1.107 4.071 4.416 6.902 1.984 1.7 3.714 2.996 3.838 2.881.127-.118.378-4.516.558-9.78.345-10.088-.044-12.491-2.536-15.608l-1.278-1.6 2.01-2.117c2.625-2.763 3.829-4.977 4.352-7.997l.425-2.456-2.27 2.098c-1.86 1.716-2.746 2.097-4.901 2.097-2.131 0-2.964-.349-4.399-1.843-1.724-1.791-4.779-3.516-7.716-4.354-1.084-.31-1.447-.177-1.447.54 0 .526-.599 2.04-1.331 3.366l-1.332 2.415-2.79-2.693c-1.712-1.65-3.743-2.934-5.255-3.324-3.861-.989-4.071-.891-4.071 1.916 0 4.257-1.862 5.048-5.213 2.22-2.556-2.158-4.676-2.627-9.524-2.108l-3.743.402.673 1.65c.564 1.376.437 1.957-.767 3.522-1.958 2.536-4.499 3.634-8.411 3.634-1.801 0-4.056.366-5.013.809-.953.446-3.324.956-5.266 1.139-1.946.18-4.018.505-4.606.721-.921.333-1.021.059-.723-1.984.452-3.13-1.786-5.435-5.275-5.435-4.526 0-6.613 3.95-4.842 9.16a39.06 39.06 0 01.992 3.517c.213.965 2.252 3.524 4.75 5.963 2.406 2.35 4.682 4.794 5.054 5.432.375.64 1.609 1.665 2.742 2.279l2.067 1.116-.272-2.156c-.301-2.367.228-2.739 1.521-1.068.46.596 1.635 1.565 2.607 2.146 1.532.918 1.765.936 1.765.139 0-.505.313-1.671.694-2.592l.693-1.671 1.205 2.276c.661 1.249 2.813 4.092 4.783 6.315 3.819 4.316 6.146 9.137 4.947 10.247-.487.451-1.807.416-4.534-.121-2.117-.414-4.736-.632-5.819-.487-2.211.301-2.385.023-1.025-1.639 1.436-1.754 1.208-2.043-1.611-2.043-3.265 0-11.366-1.526-14.475-2.728-3.022-1.166-3.719-.876-4.611 1.922-.401 1.258-1.133 3.54-1.629 5.069l-.901 2.784 3.271-.31c1.798-.168 4.112-.552 5.143-.853 1.027-.301 1.963-.461 2.078-.355.115.104-.346 1.193-1.018 2.415l-1.229 2.223 2.041-.407c1.121-.221 2.81-.767 3.748-1.21 1.639-.774 1.772-.718 3.062 1.304 1.588 2.486 2.858 2.386 3.141-.253.292-2.725 1.211-2.324 2.941 1.29 1.661 3.474 3.391 4.702 3.725 2.642.109-.685 1.007-1.798 1.99-2.474 1.993-1.37 3.492-.959 4.354 1.193.889 2.222-1.098 4.516-6.875 7.935-11.576 6.843-18.303 16.207-20.222 28.14-1.733 10.763 3.678 21.887 14.533 29.875 5.193 3.823 13.447 7.859 12.921 6.318-2.226-6.536-2.152-19.012.124-21.117.343-.316.225.986-.26 2.894-1.809 7.102-1.024 12.761 3.614 26.028 4.192 11.998 3.611 17.126-2.323 20.515-1.907 1.086-3.133 1.266-8.257 1.207-5.562-.068-6.167.042-7.954 1.429-1.73 1.346-3.973 5.766-3.973 7.826 0 1.119 1.269.972 3.767-.437l.003-.003z"/><path fill="#FFBE29" fill-rule="nonzero" d="M377.422 333.661l2.335-1.462 1.583 1.462c2.072 1.915 4.502 1.874 6.498-.116.868-.868 1.65-1.467 1.736-1.334.085.133.472.776.861 1.429.494.826 1.506 1.242 3.337 1.366 2.202.154 2.795-.056 3.669-1.29l1.045-1.473 2.297 1.441c6.285 3.941 9.635-.195 6.825-8.428-1.429-4.19-.644-6.542 3.962-11.874 1.942-2.246 3.531-4.647 3.534-5.332 0-1.089-.361-1.237-2.944-1.186-2.471.05-3.197-.21-4.496-1.609-2.12-2.273-1.993-4.877.375-7.767l1.89-2.309-3.354-2.22c-1.845-1.222-5.172-4.112-7.392-6.424-4.989-5.186-9.896-7.649-16.364-8.207l-4.337-.375.006 3.204c.009 4.124 1.993 8.088 7.407 14.807 6.155 7.641 6.583 8.824 6.834 18.809l.21 8.443-1.78 1.65c-1.609 1.488-2.335 1.68-7.528 1.972-4.945.278-5.984.525-7.434 1.78-1.927 1.665-2.503 2.571-3.099 4.871-.346 1.344-.207 1.636.785 1.636.664 0 2.258-.659 3.539-1.464zM246.123 309.232c0-1.069.49-1.353 2.893-1.686l2.893-.402-1.928-1.5c-2.293-1.782-2.506-3.176-.484-3.179 2.011 0 5.421-2.037 5.94-3.545.239-.703.089-1.639-.345-2.12-1.128-1.258-3.248-1.069-3.643.325-.422 1.496-1.131 1.499-2.74.014-2.418-2.234-2.471-6.86-.112-9.553 1.113-1.269 1.104-1.352-.316-2.662-1.523-1.412-2.615-4.201-1.898-4.863.227-.212 1.435-.044 2.677.372 1.772.593 2.468.603 3.198.042 2.208-1.692-.183-3.871-3.723-3.389-1.426.191-2.016 0-2.22-.721-.153-.549-1.399-1.263-2.804-1.609-2.51-.62-2.528-.611-2.528 1.075 0 1.848-1.08 2.199-3.135 1.012-1.671-.965-3.292-.215-3.292 1.518 0 1.62 1.668 2.418 4.659 2.232 2.294-.145 2.379 1.517.201 3.911l-1.565 1.718 1.24 1.739c1.839 2.577 1.683 6.855-.325 8.981l-1.573 1.665-1.034-1.335c-1.434-1.856-3.397-1.733-3.934.248-.355 1.299-.062 1.893 1.602 3.268 1.119.924 2.755 1.68 3.631 1.68 2.173 0 2.088 1.665-.171 3.351l-1.765 1.316 2.73.414c1.503.227 2.731.655 2.731.95 0 1.134.709 4.57 2.501 4.656 1.6.076 2.601-2.3 2.639-3.923z"/><path fill="#FFBE29" fill-rule="nonzero" d="M280.681 296.797c2.48-.954 7.85-5.388 7.85-6.486 0-.345-1.483-1.934-3.295-3.534-3.811-3.365-7.956-9.033-9.031-12.345-.561-1.728-3.268-4.685-10.893-11.901l-10.147-9.6-2.922.72c-1.609.399-3.572.732-4.361.744-1.363.021-1.337.098.473 1.465l1.91 1.443 2.677-1.452c2.595-1.406 2.687-1.414 3.009-.281.186.662-.219 1.807-.936 2.651-.697.818-1.092 1.745-.88 2.061.21.316-.458.974-1.485 1.467-1.907.909-3.229 3.906-1.724 3.906 1.352 0 4.334-3.59 3.992-4.803-.178-.623-.092-1.264.189-1.423 1.159-.665 1.089 2.155-.092 3.542-.697.818-1.092 1.745-.88 2.061.21.316-.458.974-1.485 1.467-1.892.903-3.229 3.906-1.739 3.906 1.462 0 4.396-3.43 4.033-4.715-.192-.67-.118-1.352.163-1.511.782-.446 1.204 1.78.543 2.869-.355.585-.352 1.382.008 2.014.65 1.145-.008 3.345-1.207 4.029-.513.293-.165.868 1.08 1.786 1.801 1.329 1.837 1.467 1.837 7.325 0 4.897.204 6.161 1.125 7.011 1.033.957 1.124.959 1.124.044 0-1.004 1.801-2.226 3.277-2.226.434 0 3.15 2.247 6.037 4.992 2.902 2.761 5.94 5.113 6.802 5.261.853.151 1.78.307 2.055.351.277.045 1.579-.33 2.893-.835v-.003zM249.657 273.115c0-1.58-3.336-3.262-7.328-3.699-3.22-.354-3.273-.334-3.273 1.237 0 1.299.507 1.809 2.73 2.754 3.575 1.52 7.871 1.358 7.871-.292z"/><path fill="#FFBE29" fill-rule="nonzero" d="M253.315 272.97c1.629-1.44 2.4-3.155 1.42-3.155-1.125 0-4.116 2.615-4.116 3.601 0 1.541.555 1.446 2.696-.446zM249.846 268.303c.139-.891-.425-1.485-2.117-2.232-3.652-1.609-8.015-2.353-9.066-1.547-1.934 1.485-.646 3.478 2.483 3.835 1.26.145 2.967.52 3.796.835 2.403.91 4.691.494 4.904-.891zM249.846 263.532c.197-1.269-.635-1.724-7.431-4.059-5.075-1.742-7.321-.918-5.697 2.087.564 1.045 1.511 1.524 3.637 1.834 1.582.233 3.743.684 4.803 1.006 2.834.856 4.469.555 4.688-.868zM253.25 259.066c1.027-1.016 1.865-2.211 1.865-2.66 0-1.456-4.05 1.119-4.567 2.902-.617 2.14.387 2.048 2.702-.242zM249.846 258.764c.224-1.446-2.241-2.754-7.091-3.758-3.561-.738-5.128-.318-4.863 1.293.145.883 1.332 1.527 4.694 2.548 5.379 1.639 6.997 1.621 7.26-.083zM254.59 252.031c6.214-2.701 6.751-9.506.891-11.295-2.432-.741-3.985-.343-4.918 1.266-.712 1.231-.236 3.472.741 3.472.331 0 .599.413.599.921 0 2.362-9.488 3.433-13.379 1.509-1.366-.677-1.963-2.43-.826-2.43.85 0 1.437-1.789 1.003-3.055-.59-1.722-2.37-2.318-4.953-1.66-5.825 1.485-5.662 8.163.271 10.997 4.862 2.326 15.523 2.468 20.571.275z"/><path fill="#FFBE29" fill-rule="nonzero" d="M250.725 246.796c.36-.333.204-.844-.401-1.307-1.32-1.013-1.249-2.519.201-4.245 1.086-1.293 1.222-3.233 1.597-22.788.647-33.702 3.215-59.052 6.601-65.133 1.346-2.421 1.157-2.43-2.327-.118-4.484 2.979-7.899 6.857-10.928 12.408-5.713 10.483-7.7 24.585-7.7 54.688 0 17.093.119 19.331 1.116 20.937.951 1.526 1.001 2.09.334 3.719-.431 1.057-.626 2.067-.434 2.244 1.275 1.178 10.569.865 11.941-.401v-.004zM302.94 214.66c.195-.293-.236-1.76-.956-3.266-1.122-2.347-1.577-2.736-3.177-2.736-5.013 0-13.069-2.185-21.376-5.798-4.798-2.088-6.454-2.566-7.03-2.034-1.467 1.355.972 4.576 4.751 6.267 3.35 1.503 12.717 3.345 16.992 3.345 2.48 0 2.539.109 1.128 2.099l-1.04 1.464 2.805.071c1.544.038 3.672.275 4.733.523 2.754.649 2.78.649 3.17.065z"/><path fill-rule="nonzero" d="M332.219 229.848c0-.873-2.621-3.232-5.278-4.753-2.085-1.195-2.43-1.231-2.436-.256-.006 1.479-1.355 5.195-1.883 5.195-.298 0-.741-.726-.98-1.615-.242-.888-1.255-2.636-2.25-3.888l-1.81-2.273-1.407 2.108c-1.314 1.963-3.588 3.885-4.597 3.885-.242 0-.289-1.033-.106-2.297.2-1.372.047-2.462-.381-2.707-.396-.224-.718-.147-.718.175 0 .74-3.158 4.236-3.826 4.236-.277 0-.661-1.001-.859-2.226a222.13 222.13 0 00-.737-4.305c-.213-1.142.238-.368.997 1.722l1.385 3.802 1.517-2.317c.835-1.273 1.518-2.666 1.52-3.094 0-.428.284-.617.626-.419.346.195.824 1.726 1.063 3.4l.437 3.047 1.671-1.786c.918-.98 1.993-2.297 2.391-2.922.706-1.114.747-1.114 2.155.052.791.653 2.005 2.214 2.698 3.472.694 1.255 1.353 2.191 1.468 2.076.112-.113.366-1.409.564-2.876.197-1.47.375-2.727.392-2.793.098-.365 5.028 2.764 6.852 4.346 1.172 1.018 2.288 1.709 2.474 1.535.189-.174.345-1.677.345-3.339 0-2.574-.28-3.262-1.895-4.67-1.854-1.618-1.907-1.626-2.592-.443-.888 1.535-1.939 1.559-1.939.041 0-1.107-3.507-5.363-4.417-5.363-.239 0-.977.932-1.641 2.075-.667 1.145-1.385 2.078-1.594 2.078-.898-.006-5.84-5.384-5.84-6.353 0-.773.334-.575 1.202.715.658.98 1.972 2.441 2.922 3.25 1.922 1.635 2.619 1.237 3.363-1.916.209-.897.579-1.633.815-1.633.82 0 5.125 4.461 5.73 5.937l.608 1.485.461-1.632c.56-1.996 1.18-2.07 2.081-.248.375.761 2.229 2.344 4.118 3.516l3.436 2.131.691-2.143c.378-1.181.883-1.86 1.116-1.509.351.526-.543 4.08-1.216 4.845-.101.115-1.216-.52-2.474-1.409l-2.291-1.614-.012 2.893c-.006 1.588-.183 3.489-.395 4.224-.417 1.438-1.521 1.843-1.521.558h-.003zM315.085 206.801c-4.083-3.327-4.703-4.089-4.611-5.665l.094-1.677.266 1.621c.157.947 1.246 2.364 2.616 3.409l2.347 1.789 1.443-1.629c.794-.895 1.452-1.963 1.467-2.371.033-1.063.228-.974 2.994 1.367 2.456 2.081 2.494 2.09 2.86.741.204-.75.13-2.164-.159-3.141-.803-2.69-.646-3.094.57-1.473.605.809 1.579 1.948 2.167 2.536 1.015 1.024 1.077 1.009 1.458-.295.219-.753.398-2.126.405-3.056l.008-1.689 2.214 2.451c2.07 2.287 2.262 2.373 2.893 1.281.372-.641.68-2.188.685-3.433.009-1.609.181-2.014.603-1.403.699 1.025.212 3.811-1.081 6.185l-.93 1.703-1.219-1.85c-1.559-2.368-2.075-2.333-3.076.224-.945 2.418-1.562 2.601-2.483.744-.596-1.202-.708-1.054-1.131 1.47l-.472 2.807-2.816-2.134-2.82-2.134-1.266 1.405c-.697.773-1.275 1.739-1.287 2.146-.027.886-.703.912-1.736.071h-.003zM351.417 194.408c-1.485-1.308-2.509-2.554-2.276-2.769.236-.219.502-.281.59-.139.086.142 1.302 1.388 2.699 2.769 3.218 3.185 2.556 3.274-1.013.139zM303.023 189.528c-1.352-1.783-1.258-2.967.389-4.901 1.19-1.396 1.733-1.585 3.808-1.328 1.335.165 4.201 1.314 6.374 2.553 2.506 1.429 5.101 2.389 7.112 2.628 1.739.204 3.165.283 3.165.171 0-.112-.724-1.26-1.606-2.554-2.099-3.07-2.029-3.4.339-1.558 2.43 1.886 5.335 2.438 11.826 2.246l3.174-.094-1.842-1.774c-2.571-2.483-1.78-2.705 1.063-.299 2.665 2.259 2.497 2.418-3.115 2.964-2.382.231-4.948.062-7.079-.466-3.188-.791-3.309-.779-2.707.266.348.599.912 1.092 1.251 1.092.343 0 .62.304.62.676 0 1.146-6.884.139-10.176-1.488-7.519-3.714-8.464-4.035-10.252-3.486-.995.307-1.993 1.204-2.335 2.102-1.146 2.996 3.205 5.322 5.003 2.674.52-.767.399-1.29-.516-2.226-1.252-1.278-1.137-1.461.555-.862 1.201.425 1.364 3.239.245 4.272-1.278 1.181-4.195.847-5.296-.608z"/><path fill-rule="nonzero" d="M332.636 182.13c-.939-.868-.201-1.081 4.011-1.157 5.217-.095 8.382-.942 12.119-3.245 2.994-1.845 3.805-1.482.962.431-2.592 1.745-6.633 3.085-10.536 3.495-1.892.198-4.044.473-4.788.612-.744.138-1.538.076-1.768-.136z"/><path fill="#FFBE29" fill-rule="nonzero" d="M206.913 318.094s-3.147 6.571-6.625 9.246c-5.154 3.967-15.717 3.681-20.201 8.307-5.373 5.456.416 12.665.369 13.291l-.296 3.808s3.623.044 5.149.286c2.294.369 3.188 2.282 7.457 1.996 10.74-.714 10.306-10.631 10.914-19.103.537-3.227 1.786-7.437 2.495-10.661.608-2.766.738-7.17.738-7.17zm0-141.904s-3.147-6.568-6.625-9.246c-5.154-3.965-15.717-3.678-20.201-8.305-5.373-5.458.416-12.667.369-13.29l-.296-3.808s3.623-.044 5.149-.29c2.294-.365 3.188-2.279 7.457-1.995 10.74.714 10.306 10.63 10.914 19.106.537 3.227 1.786 7.434 2.495 10.66.608 2.766.738 7.168.738 7.168z"/></svg>